<svg class="main-svg" xmlns="http://www.w3.org/2000/svg" xmlns:xlink="http://www.w3.org/1999/xlink" width="1280" height="960" style="" viewBox="0 0 640 480"><rect x="0" y="0" width="640" height="480" style="fill: rgb(0, 0, 0); fill-opacity: 0;"/><defs id="defs-b47dcf"><g class="clips"><clipPath id="clipb47dcfxyplot" class="plotclip"><rect width="235.2" height="340"/></clipPath><clipPath id="clipb47dcfx2y2plot" class="plotclip"><rect width="235.2" height="340"/></clipPath><clipPath class="axesclip" id="clipb47dcfx"><rect x="80" y="0" width="235.2" height="480"/></clipPath><clipPath class="axesclip" id="clipb47dcfy"><rect x="0" y="60" width="640" height="340"/></clipPath><clipPath class="axesclip" id="clipb47dcfxy"><rect x="80" y="60" width="235.2" height="340"/></clipPath><clipPath class="axesclip" id="clipb47dcfy2"><rect x="0" y="60" width="640" height="340"/></clipPath><clipPath class="axesclip" id="clipb47dcfxy2"><rect x="80" y="60" width="235.2" height="340"/></clipPath><clipPath class="axesclip" id="clipb47dcfx2"><rect x="324.8" y="0" width="235.2" height="480"/></clipPath><clipPath class="axesclip" id="clipb47dcfx2y"><rect x="324.8" y="60" width="235.2" height="340"/></clipPath><clipPath class="axesclip" id="clipb47dcfx2y2"><rect x="324.8" y="60" width="235.2" height="340"/></clipPath></g><g class="gradients"/><g class="patterns"/></defs><g class="bglayer"><rect class="bg" x="80" y="60" width="235.2" height="340" style="fill: rgb(0, 0, 0); fill-opacity: 0; stroke-width: 0;"/><rect class="bg" x="324.8" y="60" width="235.2" height="340" style="fill: rgb(0, 0, 0); fill-opacity: 0; stroke-width: 0;"/></g><g class="layer-below"><g class="imagelayer"/><g class="shapelayer"/></g><g class="cartesianlayer"><g class="subplot xy"><g class="layer-subplot"><g class="shapelayer"/><g class="imagelayer"/></g><g class="minor-gridlayer"><g class="x"/><g class="y"/></g><g class="gridlayer"><g class="x"/><g class="y"><path class="ygrid crisp" transform="translate(0,338)" d="M80,0h235.2" style="stroke: rgb(255, 255, 255); stroke-opacity: 1; stroke-width: 1px;"/><path class="ygrid crisp" transform="translate(0,163.53)" d="M80,0h235.2" style="stroke: rgb(255, 255, 255); stroke-opacity: 1; stroke-width: 1px;"/><path class="ygrid crisp" transform="translate(0,76.28999999999999)" d="M80,0h235.2" style="stroke: rgb(255, 255, 255); stroke-opacity: 1; stroke-width: 1px;"/></g></g><g class="zerolinelayer"><path class="yzl zl crisp" transform="translate(0,250.76)" d="M80,0h235.2" style="stroke: rgb(255, 255, 255); stroke-opacity: 1; stroke-width: 2px;"/></g><path class="xlines-below"/><path class="ylines-below"/><g class="overlines-below"/><g class="xaxislayer-below"/><g class="yaxislayer-below"/><g class="overaxes-below"/><g class="plot" transform="translate(80,60)" clip-path="url(#clipb47dcfxyplot)"><g class="violinlayer mlayer"><g class="trace violins" style="opacity: 1;"><path class="violin" d="M77.51,313.3Q77.53,311.09 77.54,309.99C77.55,308.89 77.55,307.78 77.57,306.68C77.58,305.58 77.61,304.48 77.63,303.38C77.65,302.28 77.68,301.17 77.71,300.07C77.74,298.97 77.77,297.86 77.8,296.76C77.83,295.66 77.87,294.56 77.91,293.46C77.95,292.36 77.99,291.25 78.03,290.15C78.07,289.05 78.12,287.95 78.17,286.85C78.22,285.75 78.27,284.64 78.33,283.54C78.39,282.44 78.45,281.33 78.53,280.23C78.61,279.13 78.69,278.03 78.79,276.93C78.89,275.83 79,274.72 79.13,273.62C79.25,272.52 79.39,271.42 79.54,270.32C79.69,269.22 79.86,268.11 80.04,267.01C80.22,265.91 80.42,264.8 80.61,263.7C80.8,262.6 81.01,261.5 81.2,260.4C81.4,259.3 81.59,258.19 81.78,257.09C81.97,255.99 82.15,254.88 82.32,253.78C82.49,252.68 82.65,251.58 82.8,250.48C82.95,249.38 83.09,248.27 83.23,247.17C83.37,246.07 83.51,244.97 83.65,243.87C83.8,242.77 83.94,241.66 84.1,240.56C84.26,239.46 84.43,238.35 84.62,237.25C84.82,236.15 85.03,235.05 85.27,233.95C85.51,232.85 85.76,231.74 86.04,230.64C86.32,229.54 86.62,228.44 86.93,227.34C87.24,226.24 87.58,225.13 87.9,224.03C88.23,222.93 88.55,221.82 88.88,220.72C89.2,219.62 89.53,218.52 89.85,217.42C90.16,216.32 90.47,215.21 90.77,214.11C91.07,213.01 91.35,211.91 91.64,210.81C91.93,209.71 92.21,208.6 92.49,207.5C92.78,206.4 93.06,205.29 93.35,204.19C93.65,203.09 93.95,201.99 94.26,200.89C94.57,199.79 94.88,198.68 95.2,197.58C95.52,196.48 95.85,195.37 96.17,194.27C96.49,193.17 96.8,192.07 97.11,190.97C97.42,189.87 97.73,188.76 98.02,187.66C98.31,186.56 98.59,185.46 98.87,184.36C99.14,183.26 99.41,182.15 99.67,181.05C99.93,179.95 100.18,178.84 100.41,177.74C100.64,176.64 100.86,175.54 101.06,174.44C101.26,173.34 101.44,172.23 101.6,171.13C101.76,170.03 101.9,168.93 102.02,167.83C102.14,166.73 102.24,165.62 102.32,164.52C102.4,163.42 102.46,162.31 102.51,161.21C102.56,160.11 102.59,159.01 102.6,157.91C102.61,156.81 102.59,155.7 102.54,154.6C102.49,153.5 102.41,152.39 102.28,151.29C102.15,150.19 101.99,149.09 101.78,147.99C101.57,146.88 101.32,145.78 101.04,144.68C100.76,143.58 100.43,142.48 100.1,141.38C99.76,140.27 99.4,139.17 99.03,138.07C98.66,136.97 98.28,135.86 97.9,134.76C97.52,133.66 97.13,132.56 96.75,131.46C96.37,130.36 95.99,129.25 95.61,128.15C95.23,127.05 94.85,125.95 94.48,124.85C94.1,123.75 93.73,122.64 93.36,121.54C92.99,120.44 92.62,119.33 92.24,118.23C91.86,117.13 91.49,116.03 91.1,114.93C90.71,113.83 90.32,112.72 89.92,111.62C89.52,110.52 89.12,109.41 88.71,108.31C88.3,107.21 87.89,106.11 87.48,105.01C87.07,103.91 86.65,102.8 86.25,101.7C85.85,100.6 85.46,99.5 85.07,98.4C84.69,97.3 84.3,96.2 83.94,95.09C83.58,93.99 83.23,92.88 82.9,91.78C82.57,90.68 82.25,89.58 81.95,88.48C81.65,87.38 81.37,86.27 81.11,85.17C80.85,84.07 80.61,82.97 80.39,81.87C80.17,80.77 79.98,79.67 79.81,78.56C79.64,77.46 79.5,76.35 79.37,75.25C79.24,74.15 79.14,73.05 79.05,71.95C78.96,70.85 78.88,69.74 78.81,68.64C78.74,67.54 78.69,66.43 78.63,65.33C78.57,64.23 78.52,63.13 78.47,62.03C78.42,60.93 78.36,59.82 78.31,58.72C78.26,57.62 78.2,56.52 78.15,55.42C78.1,54.32 78.04,53.21 77.99,52.11C77.94,51.01 77.89,49.9 77.84,48.8C77.8,47.7 77.75,46.6 77.72,45.5C77.68,44.4 77.66,43.29 77.63,42.19C77.61,41.09 77.59,39.99 77.57,38.89Q77.55,37.79 77.53,35.58L77.45,35.58Q77.43,37.79 77.41,38.89C77.39,39.99 77.37,41.09 77.35,42.19C77.32,43.29 77.3,44.4 77.26,45.5C77.23,46.6 77.18,47.7 77.14,48.8C77.09,49.9 77.04,51.01 76.99,52.11C76.94,53.21 76.88,54.32 76.83,55.42C76.78,56.52 76.72,57.62 76.67,58.72C76.62,59.82 76.56,60.93 76.51,62.03C76.46,63.13 76.41,64.23 76.35,65.33C76.29,66.43 76.24,67.54 76.17,68.64C76.1,69.74 76.02,70.85 75.93,71.95C75.84,73.05 75.74,74.15 75.61,75.25C75.48,76.35 75.34,77.46 75.17,78.56C75,79.67 74.81,80.77 74.59,81.87C74.37,82.97 74.13,84.07 73.87,85.17C73.61,86.27 73.33,87.38 73.03,88.48C72.73,89.58 72.41,90.68 72.08,91.78C71.75,92.88 71.4,93.99 71.04,95.09C70.68,96.2 70.29,97.3 69.91,98.4C69.52,99.5 69.13,100.6 68.73,101.7C68.33,102.8 67.91,103.91 67.5,105.01C67.09,106.11 66.68,107.21 66.27,108.31C65.86,109.41 65.46,110.52 65.06,111.62C64.66,112.72 64.27,113.83 63.88,114.93C63.49,116.03 63.12,117.13 62.74,118.23C62.36,119.33 61.99,120.44 61.62,121.54C61.25,122.64 60.88,123.75 60.5,124.85C60.13,125.95 59.75,127.05 59.37,128.15C58.99,129.25 58.61,130.36 58.23,131.46C57.85,132.56 57.46,133.66 57.08,134.76C56.7,135.86 56.32,136.97 55.95,138.07C55.58,139.17 55.22,140.27 54.88,141.38C54.55,142.48 54.22,143.58 53.94,144.68C53.66,145.78 53.41,146.88 53.2,147.99C52.99,149.09 52.83,150.19 52.7,151.29C52.57,152.39 52.49,153.5 52.44,154.6C52.39,155.7 52.37,156.81 52.38,157.91C52.39,159.01 52.42,160.11 52.47,161.21C52.52,162.31 52.58,163.42 52.66,164.52C52.74,165.62 52.84,166.73 52.96,167.83C53.08,168.93 53.22,170.03 53.38,171.13C53.54,172.23 53.72,173.34 53.92,174.44C54.12,175.54 54.34,176.64 54.57,177.74C54.8,178.84 55.05,179.95 55.31,181.05C55.57,182.15 55.84,183.26 56.11,184.36C56.39,185.46 56.67,186.56 56.96,187.66C57.25,188.76 57.56,189.87 57.87,190.97C58.18,192.07 58.49,193.17 58.81,194.27C59.13,195.37 59.46,196.48 59.78,197.58C60.1,198.68 60.41,199.79 60.72,200.89C61.03,201.99 61.33,203.09 61.63,204.19C61.92,205.29 62.2,206.4 62.49,207.5C62.77,208.6 63.05,209.71 63.34,210.81C63.63,211.91 63.91,213.01 64.21,214.11C64.51,215.21 64.82,216.32 65.13,217.42C65.45,218.52 65.78,219.62 66.1,220.72C66.43,221.82 66.75,222.93 67.08,224.03C67.4,225.13 67.74,226.24 68.05,227.34C68.36,228.44 68.66,229.54 68.94,230.64C69.22,231.74 69.47,232.85 69.71,233.95C69.95,235.05 70.16,236.15 70.36,237.25C70.55,238.35 70.72,239.46 70.88,240.56C71.04,241.66 71.18,242.77 71.33,243.87C71.47,244.97 71.61,246.07 71.75,247.17C71.89,248.27 72.03,249.38 72.18,250.48C72.33,251.58 72.49,252.68 72.66,253.78C72.83,254.88 73.01,255.99 73.2,257.09C73.39,258.19 73.58,259.3 73.78,260.4C73.97,261.5 74.18,262.6 74.37,263.7C74.56,264.8 74.76,265.91 74.94,267.01C75.12,268.11 75.29,269.22 75.44,270.32C75.59,271.42 75.73,272.52 75.85,273.62C75.98,274.72 76.09,275.83 76.19,276.93C76.29,278.03 76.37,279.13 76.45,280.23C76.53,281.33 76.59,282.44 76.65,283.54C76.71,284.64 76.76,285.75 76.81,286.85C76.86,287.95 76.91,289.05 76.95,290.15C76.99,291.25 77.03,292.36 77.07,293.46C77.11,294.56 77.15,295.66 77.18,296.76C77.21,297.86 77.24,298.97 77.27,300.07C77.3,301.17 77.33,302.28 77.35,303.38C77.37,304.48 77.4,305.58 77.41,306.68C77.43,307.78 77.43,308.89 77.44,309.99Q77.45,311.09 77.47,313.3Z" style="vector-effect: non-scaling-stroke; stroke-width: 2px; stroke: rgb(213, 94, 0); stroke-opacity: 1; fill: rgb(213, 94, 0); fill-opacity: 0.5;"/><path class="box" d="M70.47,165.67H84.51M70.47,195.91H84.51V137.63H70.47ZM77.49,195.91V280.78M77.49,137.63V55.48" style="vector-effect: non-scaling-stroke; stroke-width: 2px; stroke: rgb(213, 94, 0); stroke-opacity: 1; fill: rgb(213, 94, 0); fill-opacity: 0.5;"/><g class="points"><path class="point" transform="translate(77.49,293.4)" d="M3,0A3,3 0 1,1 0,-3A3,3 0 0,1 3,0Z" style="opacity: 1; stroke-width: 0px; fill: rgb(213, 94, 0); fill-opacity: 1;"/><path class="point" transform="translate(77.49,291.29)" d="M3,0A3,3 0 1,1 0,-3A3,3 0 0,1 3,0Z" style="opacity: 1; stroke-width: 0px; fill: rgb(213, 94, 0); fill-opacity: 1;"/><path class="point" transform="translate(77.49,290.78)" d="M3,0A3,3 0 1,1 0,-3A3,3 0 0,1 3,0Z" style="opacity: 1; stroke-width: 0px; fill: rgb(213, 94, 0); fill-opacity: 1;"/><path class="point" transform="translate(77.49,288.21)" d="M3,0A3,3 0 1,1 0,-3A3,3 0 0,1 3,0Z" style="opacity: 1; stroke-width: 0px; fill: rgb(213, 94, 0); fill-opacity: 1;"/><path class="point" transform="translate(77.49,286.61)" d="M3,0A3,3 0 1,1 0,-3A3,3 0 0,1 3,0Z" style="opacity: 1; stroke-width: 0px; fill: rgb(213, 94, 0); fill-opacity: 1;"/></g></g><g class="trace violins" style="opacity: 1;"><path class="violin" d="M157.73,307.87Q157.74,305.82 157.75,304.8C157.76,303.78 157.76,302.75 157.78,301.73C157.8,300.71 157.82,299.68 157.85,298.66C157.88,297.64 157.91,296.61 157.95,295.59C157.99,294.57 158.04,293.54 158.1,292.52C158.16,291.5 158.24,290.47 158.32,289.45C158.41,288.43 158.5,287.4 158.61,286.38C158.72,285.36 158.84,284.33 158.96,283.31C159.09,282.29 159.22,281.26 159.36,280.24C159.5,279.22 159.65,278.19 159.8,277.17C159.95,276.15 160.1,275.12 160.26,274.1C160.42,273.08 160.58,272.05 160.74,271.03C160.9,270.01 161.06,268.98 161.23,267.96C161.4,266.94 161.56,265.91 161.74,264.89C161.92,263.87 162.1,262.84 162.29,261.82C162.48,260.8 162.69,259.77 162.9,258.75C163.11,257.73 163.33,256.7 163.57,255.68C163.81,254.66 164.06,253.63 164.32,252.61C164.58,251.59 164.85,250.56 165.13,249.54C165.41,248.52 165.7,247.49 165.99,246.47C166.28,245.45 166.58,244.42 166.87,243.4C167.16,242.38 167.46,241.35 167.75,240.33C168.04,239.31 168.33,238.28 168.62,237.26C168.91,236.24 169.19,235.21 169.49,234.19C169.79,233.17 170.09,232.14 170.4,231.12C170.71,230.1 171.04,229.07 171.37,228.05C171.71,227.02 172.05,226 172.41,224.98C172.77,223.95 173.16,222.93 173.54,221.91C173.93,220.89 174.32,219.86 174.72,218.84C175.13,217.81 175.55,216.79 175.97,215.77C176.4,214.75 176.82,213.72 177.27,212.7C177.72,211.67 178.18,210.65 178.65,209.63C179.12,208.6 179.61,207.58 180.1,206.56C180.59,205.54 181.1,204.52 181.59,203.49C182.08,202.47 182.57,201.45 183.02,200.42C183.46,199.4 183.9,198.38 184.26,197.35C184.62,196.33 184.94,195.31 185.18,194.28C185.42,193.26 185.6,192.24 185.7,191.21C185.8,190.19 185.82,189.16 185.79,188.14C185.76,187.12 185.65,186.09 185.51,185.07C185.37,184.04 185.17,183.02 184.96,182C184.74,180.97 184.49,179.95 184.22,178.93C183.95,177.9 183.66,176.88 183.36,175.86C183.06,174.84 182.75,173.81 182.44,172.79C182.13,171.77 181.8,170.74 181.49,169.72C181.18,168.7 180.87,167.67 180.58,166.65C180.29,165.63 180,164.61 179.73,163.58C179.46,162.56 179.21,161.53 178.97,160.51C178.73,159.49 178.5,158.46 178.28,157.44C178.06,156.42 177.86,155.39 177.64,154.37C177.42,153.35 177.2,152.32 176.97,151.3C176.74,150.28 176.5,149.25 176.24,148.23C175.98,147.2 175.7,146.18 175.4,145.16C175.1,144.13 174.79,143.11 174.46,142.09C174.13,141.06 173.79,140.04 173.43,139.02C173.07,137.99 172.7,136.97 172.32,135.95C171.94,134.93 171.55,133.9 171.17,132.88C170.79,131.86 170.39,130.83 170.02,129.81C169.65,128.79 169.28,127.77 168.93,126.74C168.58,125.72 168.24,124.7 167.92,123.67C167.6,122.65 167.31,121.63 167.02,120.6C166.73,119.58 166.46,118.55 166.2,117.53C165.94,116.51 165.69,115.48 165.44,114.46C165.19,113.44 164.94,112.41 164.69,111.39C164.44,110.37 164.18,109.34 163.92,108.32C163.66,107.3 163.39,106.27 163.12,105.25C162.85,104.23 162.58,103.2 162.31,102.18C162.04,101.16 161.77,100.13 161.51,99.11C161.25,98.09 161,97.06 160.77,96.04C160.54,95.02 160.31,93.99 160.11,92.97C159.91,91.95 159.72,90.92 159.55,89.9C159.38,88.88 159.24,87.85 159.11,86.83C158.99,85.81 158.89,84.78 158.8,83.76C158.71,82.74 158.65,81.71 158.59,80.69C158.53,79.67 158.49,78.64 158.45,77.62C158.41,76.6 158.39,75.57 158.36,74.55C158.33,73.53 158.3,72.5 158.27,71.48C158.24,70.46 158.21,69.43 158.18,68.41C158.15,67.39 158.11,66.36 158.08,65.34C158.05,64.32 158.01,63.29 157.98,62.27C157.95,61.25 157.92,60.22 157.89,59.2C157.86,58.18 157.84,57.15 157.82,56.13C157.8,55.11 157.78,54.08 157.77,53.06Q157.76,52.04 157.74,49.99L157.68,49.99Q157.66,52.04 157.65,53.06C157.64,54.08 157.62,55.11 157.6,56.13C157.58,57.15 157.56,58.18 157.53,59.2C157.5,60.22 157.47,61.25 157.44,62.27C157.41,63.29 157.37,64.32 157.34,65.34C157.31,66.36 157.27,67.39 157.24,68.41C157.21,69.43 157.18,70.46 157.15,71.48C157.12,72.5 157.09,73.53 157.06,74.55C157.03,75.57 157.01,76.6 156.97,77.62C156.93,78.64 156.89,79.67 156.83,80.69C156.77,81.71 156.71,82.74 156.62,83.76C156.53,84.78 156.43,85.81 156.31,86.83C156.18,87.85 156.04,88.88 155.87,89.9C155.7,90.92 155.51,91.95 155.31,92.97C155.11,93.99 154.88,95.02 154.65,96.04C154.42,97.06 154.17,98.09 153.91,99.11C153.65,100.13 153.38,101.16 153.11,102.18C152.84,103.2 152.57,104.23 152.3,105.25C152.03,106.27 151.76,107.3 151.5,108.32C151.24,109.34 150.98,110.37 150.73,111.39C150.48,112.41 150.23,113.44 149.98,114.46C149.73,115.48 149.48,116.51 149.22,117.53C148.96,118.55 148.69,119.58 148.4,120.6C148.11,121.63 147.82,122.65 147.5,123.67C147.18,124.7 146.84,125.72 146.49,126.74C146.14,127.77 145.77,128.79 145.4,129.81C145.03,130.83 144.63,131.86 144.25,132.88C143.87,133.9 143.48,134.93 143.1,135.95C142.72,136.97 142.35,137.99 141.99,139.02C141.63,140.04 141.29,141.06 140.96,142.09C140.63,143.11 140.32,144.13 140.02,145.16C139.72,146.18 139.44,147.2 139.18,148.23C138.92,149.25 138.68,150.28 138.45,151.3C138.22,152.32 138,153.35 137.78,154.37C137.56,155.39 137.36,156.42 137.14,157.44C136.92,158.46 136.69,159.49 136.45,160.51C136.21,161.53 135.96,162.56 135.69,163.58C135.42,164.61 135.13,165.63 134.84,166.65C134.55,167.67 134.24,168.7 133.93,169.72C133.62,170.74 133.29,171.77 132.98,172.79C132.67,173.81 132.36,174.84 132.06,175.86C131.76,176.88 131.47,177.9 131.2,178.93C130.93,179.95 130.68,180.97 130.46,182C130.25,183.02 130.05,184.04 129.91,185.07C129.77,186.09 129.66,187.12 129.63,188.14C129.6,189.16 129.62,190.19 129.72,191.21C129.82,192.24 130,193.26 130.24,194.28C130.48,195.31 130.8,196.33 131.16,197.35C131.52,198.38 131.96,199.4 132.4,200.42C132.85,201.45 133.34,202.47 133.83,203.49C134.32,204.52 134.83,205.54 135.32,206.56C135.81,207.58 136.3,208.6 136.77,209.63C137.24,210.65 137.7,211.67 138.15,212.7C138.6,213.72 139.02,214.75 139.45,215.77C139.87,216.79 140.29,217.81 140.7,218.84C141.1,219.86 141.49,220.89 141.88,221.91C142.26,222.93 142.65,223.95 143.01,224.98C143.37,226 143.71,227.02 144.05,228.05C144.38,229.07 144.71,230.1 145.02,231.12C145.33,232.14 145.63,233.17 145.93,234.19C146.23,235.21 146.51,236.24 146.8,237.26C147.09,238.28 147.38,239.31 147.67,240.33C147.96,241.35 148.26,242.38 148.55,243.4C148.84,244.42 149.14,245.45 149.43,246.47C149.72,247.49 150.01,248.52 150.29,249.54C150.57,250.56 150.84,251.59 151.1,252.61C151.36,253.63 151.61,254.66 151.85,255.68C152.09,256.7 152.31,257.73 152.52,258.75C152.73,259.77 152.94,260.8 153.13,261.82C153.32,262.84 153.5,263.87 153.68,264.89C153.86,265.91 154.02,266.94 154.19,267.96C154.36,268.98 154.52,270.01 154.68,271.03C154.84,272.05 155,273.08 155.16,274.1C155.32,275.12 155.47,276.15 155.62,277.17C155.77,278.19 155.92,279.22 156.06,280.24C156.2,281.26 156.33,282.29 156.46,283.31C156.58,284.33 156.7,285.36 156.81,286.38C156.92,287.4 157.01,288.43 157.1,289.45C157.18,290.47 157.26,291.5 157.32,292.52C157.38,293.54 157.43,294.57 157.47,295.59C157.51,296.61 157.54,297.64 157.57,298.66C157.6,299.68 157.62,300.71 157.64,301.73C157.66,302.75 157.66,303.78 157.67,304.8Q157.68,305.82 157.69,307.87Z" style="vector-effect: non-scaling-stroke; stroke-width: 2px; stroke: rgb(0, 158, 115); stroke-opacity: 1; fill: rgb(0, 158, 115); fill-opacity: 0.5;"/><path class="box" d="M150.69,183.76H164.73M150.69,208.93H164.73V153.8H150.69ZM157.71,208.93V289.27M157.71,153.8V72.13" style="vector-effect: non-scaling-stroke; stroke-width: 2px; stroke: rgb(0, 158, 115); stroke-opacity: 1; fill: rgb(0, 158, 115); fill-opacity: 0.5;"/><g class="points"><path class="point" transform="translate(157.71,70.03)" d="M3,0A3,3 0 1,1 0,-3A3,3 0 0,1 3,0Z" style="opacity: 1; stroke-width: 0px; fill: rgb(0, 158, 115); fill-opacity: 1;"/><path class="point" transform="translate(157.71,69.97)" d="M3,0A3,3 0 1,1 0,-3A3,3 0 0,1 3,0Z" style="opacity: 1; stroke-width: 0px; fill: rgb(0, 158, 115); fill-opacity: 1;"/><path class="point" transform="translate(157.71,68.58)" d="M3,0A3,3 0 1,1 0,-3A3,3 0 0,1 3,0Z" style="opacity: 1; stroke-width: 0px; fill: rgb(0, 158, 115); fill-opacity: 1;"/></g></g></g></g><g class="overplot"/><path class="xlines-above crisp" d="M79,400.5H315.2" style="fill: none; stroke-width: 1px; stroke: rgb(0, 0, 0); stroke-opacity: 1;"/><path class="ylines-above crisp" d="M79.5,60V400" style="fill: none; stroke-width: 1px; stroke: rgb(0, 0, 0); stroke-opacity: 1;"/><g class="overlines-above"/><g class="xaxislayer-above"><g class="xtick"><text text-anchor="middle" x="0" y="419" transform="translate(197.6,0)" style="font-family: 'Open Sans', verdana, arial, sans-serif; font-size: 15px; fill: rgb(0, 0, 0); fill-opacity: 1; white-space: pre; opacity: 1;"> </text></g></g><g class="yaxislayer-above"><g class="ytick"><text text-anchor="end" x="76.4" y="4.55" transform="translate(0,338)" style="font-family: 'Open Sans', verdana, arial, sans-serif; font-size: 13px; fill: rgb(0, 0, 0); fill-opacity: 1; white-space: pre; opacity: 1;">−0.5</text></g><g class="ytick"><text text-anchor="end" x="76.4" y="4.55" style="font-family: 'Open Sans', verdana, arial, sans-serif; font-size: 13px; fill: rgb(0, 0, 0); fill-opacity: 1; white-space: pre; opacity: 1;" transform="translate(0,250.76)">0</text></g><g class="ytick"><text text-anchor="end" x="76.4" y="4.55" style="font-family: 'Open Sans', verdana, arial, sans-serif; font-size: 13px; fill: rgb(0, 0, 0); fill-opacity: 1; white-space: pre; opacity: 1;" transform="translate(0,163.53)">0.5</text></g><g class="ytick"><text text-anchor="end" x="76.4" y="4.55" style="font-family: 'Open Sans', verdana, arial, sans-serif; font-size: 13px; fill: rgb(0, 0, 0); fill-opacity: 1; white-space: pre; opacity: 1;" transform="translate(0,76.28999999999999)">1</text></g></g><g class="overaxes-above"/></g><g class="subplot x2y2"><g class="layer-subplot"><g class="shapelayer"/><g class="imagelayer"/></g><g class="minor-gridlayer"><g class="x2"/><g class="y2"/></g><g class="gridlayer"><g class="x2"/><g class="y2"><path class="y2grid crisp" transform="translate(0,338)" d="M324.8,0h235.2" style="stroke: rgb(255, 255, 255); stroke-opacity: 1; stroke-width: 1px;"/><path class="y2grid crisp" transform="translate(0,163.53)" d="M324.8,0h235.2" style="stroke: rgb(255, 255, 255); stroke-opacity: 1; stroke-width: 1px;"/><path class="y2grid crisp" transform="translate(0,76.28999999999999)" d="M324.8,0h235.2" style="stroke: rgb(255, 255, 255); stroke-opacity: 1; stroke-width: 1px;"/></g></g><g class="zerolinelayer"><path class="y2zl zl crisp" transform="translate(0,250.76)" d="M324.8,0h235.2" style="stroke: rgb(255, 255, 255); stroke-opacity: 1; stroke-width: 2px;"/></g><path class="xlines-below"/><path class="ylines-below"/><g class="overlines-below"/><g class="xaxislayer-below"/><g class="yaxislayer-below"/><g class="overaxes-below"/><g class="plot" transform="translate(324.8,60)" clip-path="url(#clipb47dcfx2y2plot)"><g class="violinlayer mlayer"><g class="trace violins" style="opacity: 1;"><path class="violin" d="M77.52,305.93Q77.54,303.95 77.55,302.96C77.56,301.97 77.57,300.97 77.59,299.98C77.61,298.99 77.63,297.99 77.66,297C77.69,296.01 77.72,295.01 77.76,294.02C77.8,293.03 77.85,292.03 77.89,291.04C77.94,290.05 77.98,289.05 78.03,288.06C78.08,287.07 78.14,286.07 78.2,285.08C78.25,284.09 78.3,283.09 78.36,282.1C78.41,281.11 78.48,280.12 78.53,279.13C78.59,278.14 78.64,277.14 78.69,276.15C78.74,275.16 78.79,274.16 78.84,273.17C78.89,272.18 78.94,271.18 78.99,270.19C79.05,269.2 79.1,268.2 79.17,267.21C79.24,266.22 79.31,265.22 79.39,264.23C79.48,263.24 79.57,262.24 79.68,261.25C79.79,260.26 79.9,259.26 80.03,258.27C80.16,257.28 80.31,256.29 80.46,255.3C80.62,254.31 80.78,253.31 80.96,252.32C81.15,251.33 81.35,250.33 81.57,249.34C81.8,248.34 82.04,247.35 82.31,246.36C82.58,245.36 82.87,244.37 83.19,243.38C83.51,242.38 83.85,241.39 84.21,240.4C84.57,239.4 84.96,238.41 85.36,237.42C85.76,236.43 86.18,235.44 86.6,234.45C87.03,233.46 87.46,232.46 87.91,231.47C88.36,230.47 88.83,229.48 89.3,228.49C89.78,227.49 90.26,226.5 90.76,225.51C91.26,224.51 91.78,223.52 92.3,222.53C92.82,221.54 93.35,220.54 93.87,219.55C94.39,218.56 94.91,217.57 95.41,216.57C95.9,215.58 96.38,214.59 96.83,213.59C97.27,212.6 97.69,211.62 98.07,210.62C98.45,209.63 98.8,208.64 99.12,207.64C99.44,206.65 99.72,205.66 100,204.66C100.28,203.67 100.52,202.67 100.78,201.68C101.04,200.69 101.29,199.69 101.54,198.7C101.8,197.71 102.05,196.71 102.31,195.72C102.57,194.73 102.84,193.73 103.09,192.74C103.34,191.75 103.6,190.75 103.83,189.76C104.06,188.77 104.28,187.78 104.45,186.79C104.62,185.8 104.77,184.81 104.86,183.81C104.95,182.82 105,181.82 104.99,180.83C104.98,179.84 104.91,178.84 104.82,177.85C104.72,176.85 104.58,175.86 104.42,174.87C104.26,173.87 104.06,172.88 103.87,171.89C103.68,170.9 103.48,169.9 103.28,168.91C103.08,167.92 102.88,166.92 102.68,165.93C102.48,164.94 102.3,163.95 102.1,162.96C101.9,161.97 101.71,160.97 101.5,159.98C101.29,158.99 101.07,157.99 100.84,157C100.61,156.01 100.38,155.01 100.13,154.02C99.88,153.03 99.63,152.03 99.36,151.04C99.09,150.05 98.81,149.05 98.53,148.06C98.24,147.07 97.96,146.07 97.65,145.08C97.34,144.09 97.02,143.1 96.69,142.11C96.36,141.12 96.02,140.12 95.66,139.13C95.3,138.13 94.92,137.14 94.54,136.15C94.16,135.16 93.77,134.16 93.38,133.17C92.99,132.18 92.6,131.18 92.21,130.19C91.82,129.2 91.44,128.2 91.06,127.21C90.69,126.22 90.32,125.22 89.96,124.23C89.6,123.24 89.25,122.24 88.91,121.25C88.57,120.26 88.24,119.27 87.91,118.28C87.58,117.29 87.27,116.29 86.95,115.3C86.63,114.31 86.31,113.31 85.99,112.32C85.67,111.33 85.35,110.33 85.02,109.34C84.69,108.35 84.36,107.35 84.03,106.36C83.7,105.37 83.38,104.37 83.06,103.38C82.74,102.39 82.43,101.4 82.13,100.4C81.83,99.41 81.55,98.41 81.28,97.42C81.02,96.43 80.77,95.44 80.54,94.45C80.31,93.46 80.11,92.47 79.92,91.47C79.73,90.48 79.57,89.48 79.42,88.49C79.27,87.5 79.14,86.5 79.02,85.51C78.9,84.52 78.79,83.52 78.7,82.53C78.61,81.54 78.53,80.54 78.46,79.55C78.39,78.56 78.32,77.56 78.26,76.57C78.2,75.58 78.15,74.59 78.11,73.6C78.06,72.61 78.03,71.61 77.99,70.62C77.96,69.63 77.93,68.63 77.9,67.64C77.88,66.65 77.86,65.65 77.84,64.66C77.82,63.67 77.81,62.67 77.8,61.68C77.79,60.69 77.79,59.69 77.78,58.7C77.78,57.71 77.77,56.71 77.77,55.72C77.77,54.73 77.77,53.73 77.77,52.74C77.77,51.75 77.76,50.76 77.76,49.77C77.75,48.78 77.75,47.78 77.74,46.79C77.74,45.8 77.73,44.8 77.73,43.81C77.72,42.82 77.72,41.82 77.71,40.83C77.7,39.84 77.7,38.84 77.69,37.85C77.68,36.86 77.67,35.86 77.66,34.87C77.65,33.88 77.65,32.88 77.64,31.89C77.63,30.9 77.61,29.9 77.6,28.91C77.59,27.92 77.58,26.93 77.57,25.94C77.56,24.95 77.55,23.95 77.54,22.96C77.53,21.97 77.53,20.97 77.52,19.98Q77.52,18.99 77.51,17L77.47,17Q77.46,18.99 77.46,19.98C77.45,20.97 77.45,21.97 77.44,22.96C77.43,23.95 77.42,24.95 77.41,25.94C77.4,26.93 77.39,27.92 77.38,28.91C77.37,29.9 77.35,30.9 77.34,31.89C77.33,32.88 77.33,33.88 77.32,34.87C77.31,35.86 77.3,36.86 77.29,37.85C77.28,38.84 77.28,39.84 77.27,40.83C77.26,41.82 77.26,42.82 77.25,43.81C77.25,44.8 77.24,45.8 77.24,46.79C77.23,47.78 77.23,48.78 77.22,49.77C77.22,50.76 77.21,51.75 77.21,52.74C77.21,53.73 77.21,54.73 77.21,55.72C77.21,56.71 77.2,57.71 77.2,58.7C77.19,59.69 77.19,60.69 77.18,61.68C77.17,62.67 77.16,63.67 77.14,64.66C77.12,65.65 77.1,66.65 77.08,67.64C77.05,68.63 77.02,69.63 76.99,70.62C76.95,71.61 76.92,72.61 76.87,73.6C76.83,74.59 76.78,75.58 76.72,76.57C76.66,77.56 76.59,78.56 76.52,79.55C76.45,80.54 76.37,81.54 76.28,82.53C76.19,83.52 76.08,84.52 75.96,85.51C75.84,86.5 75.71,87.5 75.56,88.49C75.41,89.48 75.25,90.48 75.06,91.47C74.87,92.47 74.67,93.46 74.44,94.45C74.21,95.44 73.96,96.43 73.7,97.42C73.43,98.41 73.15,99.41 72.85,100.4C72.55,101.4 72.24,102.39 71.92,103.38C71.6,104.37 71.28,105.37 70.95,106.36C70.62,107.35 70.29,108.35 69.96,109.34C69.63,110.33 69.31,111.33 68.99,112.32C68.67,113.31 68.35,114.31 68.03,115.3C67.71,116.29 67.4,117.29 67.07,118.28C66.74,119.27 66.41,120.26 66.07,121.25C65.73,122.24 65.38,123.24 65.02,124.23C64.66,125.22 64.29,126.22 63.92,127.21C63.54,128.2 63.16,129.2 62.77,130.19C62.38,131.18 61.99,132.18 61.6,133.17C61.21,134.16 60.82,135.16 60.44,136.15C60.06,137.14 59.68,138.13 59.32,139.13C58.96,140.12 58.62,141.12 58.29,142.11C57.96,143.1 57.64,144.09 57.33,145.08C57.02,146.07 56.74,147.07 56.45,148.06C56.17,149.05 55.89,150.05 55.62,151.04C55.35,152.03 55.1,153.03 54.85,154.02C54.6,155.01 54.37,156.01 54.14,157C53.91,157.99 53.69,158.99 53.48,159.98C53.27,160.97 53.08,161.97 52.88,162.96C52.68,163.95 52.5,164.94 52.3,165.93C52.1,166.92 51.9,167.92 51.7,168.91C51.5,169.9 51.3,170.9 51.11,171.89C50.92,172.88 50.72,173.87 50.56,174.87C50.4,175.86 50.26,176.85 50.16,177.85C50.07,178.84 50,179.84 49.99,180.83C49.98,181.82 50.03,182.82 50.12,183.81C50.21,184.81 50.36,185.8 50.53,186.79C50.7,187.78 50.92,188.77 51.15,189.76C51.38,190.75 51.64,191.75 51.89,192.74C52.14,193.73 52.41,194.73 52.67,195.72C52.93,196.71 53.18,197.71 53.44,198.7C53.69,199.69 53.94,200.69 54.2,201.68C54.46,202.67 54.7,203.67 54.98,204.66C55.26,205.66 55.54,206.65 55.86,207.64C56.18,208.64 56.53,209.63 56.91,210.62C57.29,211.62 57.71,212.6 58.15,213.59C58.6,214.59 59.08,215.58 59.57,216.57C60.07,217.57 60.59,218.56 61.11,219.55C61.63,220.54 62.16,221.54 62.68,222.53C63.2,223.52 63.72,224.51 64.22,225.51C64.72,226.5 65.2,227.49 65.68,228.49C66.15,229.48 66.62,230.47 67.07,231.47C67.52,232.46 67.95,233.46 68.38,234.45C68.8,235.44 69.22,236.43 69.62,237.42C70.02,238.41 70.41,239.4 70.77,240.4C71.13,241.39 71.47,242.38 71.79,243.38C72.11,244.37 72.4,245.36 72.67,246.36C72.94,247.35 73.18,248.34 73.41,249.34C73.63,250.33 73.83,251.33 74.02,252.32C74.2,253.31 74.36,254.31 74.52,255.3C74.67,256.29 74.82,257.28 74.95,258.27C75.08,259.26 75.19,260.26 75.3,261.25C75.41,262.24 75.5,263.24 75.59,264.23C75.67,265.22 75.74,266.22 75.81,267.21C75.88,268.2 75.93,269.2 75.99,270.19C76.04,271.18 76.09,272.18 76.14,273.17C76.19,274.16 76.24,275.16 76.29,276.15C76.34,277.14 76.39,278.14 76.45,279.13C76.5,280.12 76.57,281.11 76.62,282.1C76.68,283.09 76.73,284.09 76.78,285.08C76.84,286.07 76.9,287.07 76.95,288.06C77,289.05 77.04,290.05 77.09,291.04C77.13,292.03 77.18,293.03 77.22,294.02C77.26,295.01 77.29,296.01 77.32,297C77.35,297.99 77.37,298.99 77.39,299.98C77.41,300.97 77.42,301.97 77.43,302.96Q77.44,303.95 77.46,305.93Z" style="vector-effect: non-scaling-stroke; stroke-width: 2px; stroke: rgb(213, 94, 0); stroke-opacity: 1; fill: rgb(213, 94, 0); fill-opacity: 0.5;"/><path class="box" d="M70.47,177.29H84.51M70.47,202.58H84.51V149.13H70.47ZM77.49,202.58V281.09M77.49,149.13V69.28" style="vector-effect: non-scaling-stroke; stroke-width: 2px; stroke: rgb(213, 94, 0); stroke-opacity: 1; fill: rgb(213, 94, 0); fill-opacity: 0.5;"/><g class="points"><path class="point" transform="translate(77.49,287.99)" d="M3,0A3,3 0 1,1 0,-3A3,3 0 0,1 3,0Z" style="opacity: 1; stroke-width: 0px; fill: rgb(213, 94, 0); fill-opacity: 1;"/><path class="point" transform="translate(77.49,287.3)" d="M3,0A3,3 0 1,1 0,-3A3,3 0 0,1 3,0Z" style="opacity: 1; stroke-width: 0px; fill: rgb(213, 94, 0); fill-opacity: 1;"/><path class="point" transform="translate(77.49,286.49)" d="M3,0A3,3 0 1,1 0,-3A3,3 0 0,1 3,0Z" style="opacity: 1; stroke-width: 0px; fill: rgb(213, 94, 0); fill-opacity: 1;"/><path class="point" transform="translate(77.49,59.91)" d="M3,0A3,3 0 1,1 0,-3A3,3 0 0,1 3,0Z" style="opacity: 1; stroke-width: 0px; fill: rgb(213, 94, 0); fill-opacity: 1;"/><path class="point" transform="translate(77.49,54.05)" d="M3,0A3,3 0 1,1 0,-3A3,3 0 0,1 3,0Z" style="opacity: 1; stroke-width: 0px; fill: rgb(213, 94, 0); fill-opacity: 1;"/><path class="point" transform="translate(77.49,50.75)" d="M3,0A3,3 0 1,1 0,-3A3,3 0 0,1 3,0Z" style="opacity: 1; stroke-width: 0px; fill: rgb(213, 94, 0); fill-opacity: 1;"/><path class="point" transform="translate(77.49,48.3)" d="M3,0A3,3 0 1,1 0,-3A3,3 0 0,1 3,0Z" style="opacity: 1; stroke-width: 0px; fill: rgb(213, 94, 0); fill-opacity: 1;"/><path class="point" transform="translate(77.49,35.16)" d="M3,0A3,3 0 1,1 0,-3A3,3 0 0,1 3,0Z" style="opacity: 1; stroke-width: 0px; fill: rgb(213, 94, 0); fill-opacity: 1;"/><path class="point" transform="translate(77.49,34.94)" d="M3,0A3,3 0 1,1 0,-3A3,3 0 0,1 3,0Z" style="opacity: 1; stroke-width: 0px; fill: rgb(213, 94, 0); fill-opacity: 1;"/></g></g><g class="trace violins" style="opacity: 1;"><path class="violin" d="M157.72,323Q157.73,320.99 157.73,319.98C157.73,318.97 157.73,317.96 157.74,316.95C157.74,315.94 157.75,314.94 157.76,313.93C157.77,312.92 157.77,311.92 157.78,310.91C157.79,309.9 157.79,308.89 157.8,307.88C157.81,306.87 157.83,305.87 157.84,304.86C157.85,303.85 157.87,302.85 157.88,301.84C157.9,300.83 157.91,299.82 157.93,298.81C157.95,297.8 157.98,296.8 158,295.79C158.02,294.78 158.05,293.78 158.07,292.77C158.09,291.76 158.12,290.75 158.14,289.74C158.16,288.73 158.19,287.73 158.21,286.72C158.23,285.71 158.25,284.71 158.28,283.7C158.31,282.69 158.33,281.68 158.37,280.67C158.41,279.66 158.45,278.66 158.5,277.65C158.56,276.64 158.62,275.64 158.7,274.63C158.78,273.62 158.87,272.61 158.97,271.6C159.07,270.59 159.18,269.59 159.3,268.58C159.42,267.57 159.55,266.57 159.68,265.56C159.81,264.55 159.95,263.54 160.1,262.53C160.24,261.52 160.39,260.52 160.55,259.51C160.71,258.5 160.88,257.5 161.06,256.49C161.24,255.48 161.43,254.47 161.65,253.46C161.87,252.45 162.1,251.44 162.36,250.44C162.62,249.43 162.91,248.42 163.21,247.42C163.52,246.41 163.85,245.4 164.19,244.39C164.54,243.38 164.91,242.38 165.28,241.37C165.65,240.36 166.04,239.36 166.42,238.35C166.8,237.34 167.19,236.33 167.57,235.32C167.95,234.31 168.33,233.31 168.71,232.3C169.09,231.29 169.47,230.29 169.85,229.28C170.24,228.27 170.62,227.26 171.02,226.25C171.42,225.24 171.83,224.23 172.26,223.23C172.69,222.22 173.14,221.21 173.61,220.21C174.09,219.2 174.59,218.19 175.1,217.18C175.61,216.17 176.15,215.16 176.69,214.16C177.23,213.15 177.8,212.15 178.35,211.14C178.9,210.13 179.46,209.12 179.99,208.11C180.52,207.11 181.04,206.1 181.52,205.09C181.99,204.09 182.44,203.09 182.84,202.07C183.23,201.07 183.6,200.06 183.9,199.04C184.2,198.04 184.45,197.03 184.66,196.02C184.87,195.02 185.02,194 185.14,192.99C185.26,191.98 185.34,190.98 185.38,189.97C185.42,188.96 185.42,187.96 185.4,186.95C185.38,185.94 185.34,184.93 185.28,183.92C185.22,182.91 185.12,181.91 185.02,180.9C184.92,179.89 184.79,178.89 184.66,177.88C184.52,176.87 184.38,175.86 184.21,174.85C184.04,173.84 183.86,172.83 183.66,171.83C183.45,170.82 183.23,169.82 182.98,168.81C182.73,167.8 182.46,166.79 182.17,165.78C181.87,164.77 181.55,163.76 181.21,162.76C180.87,161.75 180.5,160.75 180.13,159.74C179.75,158.73 179.35,157.72 178.96,156.71C178.57,155.7 178.17,154.7 177.79,153.69C177.41,152.69 177.04,151.68 176.69,150.67C176.34,149.66 176.02,148.65 175.71,147.64C175.4,146.63 175.12,145.63 174.84,144.62C174.57,143.62 174.32,142.61 174.06,141.6C173.8,140.59 173.54,139.58 173.27,138.57C173,137.56 172.72,136.55 172.42,135.55C172.12,134.54 171.8,133.54 171.47,132.53C171.14,131.52 170.78,130.51 170.43,129.5C170.08,128.49 169.7,127.49 169.35,126.48C169,125.47 168.64,124.47 168.31,123.46C167.98,122.45 167.65,121.44 167.36,120.43C167.07,119.43 166.8,118.42 166.55,117.41C166.3,116.41 166.09,115.4 165.88,114.39C165.67,113.38 165.49,112.37 165.31,111.36C165.14,110.35 164.98,109.35 164.83,108.34C164.68,107.33 164.54,106.33 164.39,105.32C164.24,104.31 164.09,103.3 163.94,102.29C163.79,101.28 163.63,100.28 163.47,99.27C163.31,98.26 163.14,97.26 162.96,96.25C162.78,95.24 162.59,94.23 162.39,93.22C162.19,92.21 161.98,91.21 161.77,90.2C161.56,89.19 161.35,88.19 161.14,87.18C160.93,86.17 160.73,85.16 160.53,84.15C160.33,83.14 160.14,82.14 159.96,81.13C159.78,80.12 159.62,79.12 159.47,78.11C159.32,77.1 159.19,76.09 159.07,75.08C158.95,74.07 158.85,73.07 158.76,72.06C158.67,71.05 158.59,70.05 158.52,69.04C158.45,68.03 158.39,67.02 158.34,66.01C158.29,65 158.24,64 158.2,62.99C158.16,61.98 158.12,60.98 158.09,59.97C158.05,58.96 158.02,57.95 157.99,56.94C157.96,55.93 157.94,54.93 157.92,53.92C157.9,52.91 157.88,51.91 157.87,50.9C157.85,49.89 157.84,48.88 157.83,47.87C157.82,46.86 157.81,45.86 157.8,44.85C157.79,43.84 157.78,42.84 157.77,41.83C157.76,40.82 157.76,39.81 157.75,38.8C157.75,37.79 157.74,36.79 157.74,35.78C157.74,34.77 157.73,33.77 157.73,32.76Q157.73,31.75 157.72,29.73L157.7,29.73Q157.69,31.75 157.69,32.76C157.69,33.77 157.68,34.77 157.68,35.78C157.68,36.79 157.67,37.79 157.67,38.8C157.66,39.81 157.66,40.82 157.65,41.83C157.64,42.84 157.63,43.84 157.62,44.85C157.61,45.86 157.6,46.86 157.59,47.87C157.58,48.88 157.57,49.89 157.55,50.9C157.54,51.91 157.52,52.91 157.5,53.92C157.48,54.93 157.46,55.93 157.43,56.94C157.4,57.95 157.37,58.96 157.33,59.97C157.3,60.98 157.26,61.98 157.22,62.99C157.18,64 157.13,65 157.08,66.01C157.03,67.02 156.97,68.03 156.9,69.04C156.83,70.05 156.75,71.05 156.66,72.06C156.57,73.07 156.47,74.07 156.35,75.08C156.23,76.09 156.1,77.1 155.95,78.11C155.8,79.12 155.64,80.12 155.46,81.13C155.28,82.14 155.09,83.14 154.89,84.15C154.69,85.16 154.49,86.17 154.28,87.18C154.07,88.19 153.86,89.19 153.65,90.2C153.44,91.21 153.23,92.21 153.03,93.22C152.83,94.23 152.64,95.24 152.46,96.25C152.28,97.26 152.11,98.26 151.95,99.27C151.79,100.28 151.63,101.28 151.48,102.29C151.33,103.3 151.18,104.31 151.03,105.32C150.88,106.33 150.74,107.33 150.59,108.34C150.44,109.35 150.28,110.35 150.11,111.36C149.93,112.37 149.75,113.38 149.54,114.39C149.33,115.4 149.12,116.41 148.87,117.41C148.62,118.42 148.35,119.43 148.06,120.43C147.77,121.44 147.44,122.45 147.11,123.46C146.78,124.47 146.42,125.47 146.07,126.48C145.72,127.49 145.34,128.49 144.99,129.5C144.64,130.51 144.28,131.52 143.95,132.53C143.62,133.54 143.3,134.54 143,135.55C142.7,136.55 142.42,137.56 142.15,138.57C141.88,139.58 141.62,140.59 141.36,141.6C141.1,142.61 140.85,143.62 140.58,144.62C140.3,145.63 140.02,146.63 139.71,147.64C139.4,148.65 139.08,149.66 138.73,150.67C138.38,151.68 138.01,152.69 137.63,153.69C137.25,154.7 136.85,155.7 136.46,156.71C136.07,157.72 135.67,158.73 135.29,159.74C134.92,160.75 134.55,161.75 134.21,162.76C133.87,163.76 133.55,164.77 133.25,165.78C132.96,166.79 132.69,167.8 132.44,168.81C132.19,169.82 131.97,170.82 131.76,171.83C131.56,172.83 131.38,173.84 131.21,174.85C131.04,175.86 130.9,176.87 130.76,177.88C130.63,178.89 130.5,179.89 130.4,180.9C130.3,181.91 130.2,182.91 130.14,183.92C130.08,184.93 130.04,185.94 130.02,186.95C130,187.96 130,188.96 130.04,189.97C130.08,190.98 130.16,191.98 130.28,192.99C130.4,194 130.55,195.02 130.76,196.02C130.97,197.03 131.22,198.04 131.52,199.04C131.82,200.06 132.19,201.07 132.58,202.07C132.98,203.09 133.43,204.09 133.9,205.09C134.38,206.1 134.9,207.11 135.43,208.11C135.96,209.12 136.52,210.13 137.07,211.14C137.62,212.15 138.19,213.15 138.73,214.16C139.27,215.16 139.81,216.17 140.32,217.18C140.83,218.19 141.33,219.2 141.81,220.21C142.28,221.21 142.73,222.22 143.16,223.23C143.59,224.23 144,225.24 144.4,226.25C144.8,227.26 145.18,228.27 145.57,229.28C145.95,230.29 146.33,231.29 146.71,232.3C147.09,233.31 147.47,234.31 147.85,235.32C148.23,236.33 148.62,237.34 149,238.35C149.38,239.36 149.77,240.36 150.14,241.37C150.51,242.38 150.88,243.38 151.23,244.39C151.57,245.4 151.9,246.41 152.21,247.42C152.51,248.42 152.8,249.43 153.06,250.44C153.32,251.44 153.55,252.45 153.77,253.46C153.99,254.47 154.18,255.48 154.36,256.49C154.54,257.5 154.71,258.5 154.87,259.51C155.03,260.52 155.18,261.52 155.32,262.53C155.47,263.54 155.61,264.55 155.74,265.56C155.87,266.57 156,267.57 156.12,268.58C156.24,269.59 156.35,270.59 156.45,271.6C156.55,272.61 156.64,273.62 156.72,274.63C156.8,275.64 156.86,276.64 156.92,277.65C156.97,278.66 157.01,279.66 157.05,280.67C157.09,281.68 157.11,282.69 157.14,283.7C157.17,284.71 157.19,285.71 157.21,286.72C157.23,287.73 157.26,288.73 157.28,289.74C157.3,290.75 157.33,291.76 157.35,292.77C157.37,293.78 157.4,294.78 157.42,295.79C157.44,296.8 157.47,297.8 157.49,298.81C157.51,299.82 157.52,300.83 157.54,301.84C157.55,302.85 157.57,303.85 157.58,304.86C157.59,305.87 157.61,306.87 157.62,307.88C157.63,308.89 157.63,309.9 157.64,310.91C157.65,311.92 157.65,312.92 157.66,313.93C157.67,314.94 157.68,315.94 157.68,316.95C157.69,317.96 157.69,318.97 157.69,319.98Q157.69,320.99 157.7,323Z" style="vector-effect: non-scaling-stroke; stroke-width: 2px; stroke: rgb(0, 158, 115); stroke-opacity: 1; fill: rgb(0, 158, 115); fill-opacity: 0.5;"/><path class="box" d="M150.69,179.53H164.73M150.69,203.81H164.73V151.27H150.69ZM157.71,203.81V273.37M157.71,151.27V75.88" style="vector-effect: non-scaling-stroke; stroke-width: 2px; stroke: rgb(0, 158, 115); stroke-opacity: 1; fill: rgb(0, 158, 115); fill-opacity: 0.5;"/><g class="points"><path class="point" transform="translate(157.71,304.71)" d="M3,0A3,3 0 1,1 0,-3A3,3 0 0,1 3,0Z" style="opacity: 1; stroke-width: 0px; fill: rgb(0, 158, 115); fill-opacity: 1;"/><path class="point" transform="translate(157.71,291.23)" d="M3,0A3,3 0 1,1 0,-3A3,3 0 0,1 3,0Z" style="opacity: 1; stroke-width: 0px; fill: rgb(0, 158, 115); fill-opacity: 1;"/><path class="point" transform="translate(157.71,288.37)" d="M3,0A3,3 0 1,1 0,-3A3,3 0 0,1 3,0Z" style="opacity: 1; stroke-width: 0px; fill: rgb(0, 158, 115); fill-opacity: 1;"/><path class="point" transform="translate(157.71,287.9)" d="M3,0A3,3 0 1,1 0,-3A3,3 0 0,1 3,0Z" style="opacity: 1; stroke-width: 0px; fill: rgb(0, 158, 115); fill-opacity: 1;"/><path class="point" transform="translate(157.71,285.31)" d="M3,0A3,3 0 1,1 0,-3A3,3 0 0,1 3,0Z" style="opacity: 1; stroke-width: 0px; fill: rgb(0, 158, 115); fill-opacity: 1;"/><path class="point" transform="translate(157.71,284.59)" d="M3,0A3,3 0 1,1 0,-3A3,3 0 0,1 3,0Z" style="opacity: 1; stroke-width: 0px; fill: rgb(0, 158, 115); fill-opacity: 1;"/><path class="point" transform="translate(157.71,283.68)" d="M3,0A3,3 0 1,1 0,-3A3,3 0 0,1 3,0Z" style="opacity: 1; stroke-width: 0px; fill: rgb(0, 158, 115); fill-opacity: 1;"/><path class="point" transform="translate(157.71,70.62)" d="M3,0A3,3 0 1,1 0,-3A3,3 0 0,1 3,0Z" style="opacity: 1; stroke-width: 0px; fill: rgb(0, 158, 115); fill-opacity: 1;"/><path class="point" transform="translate(157.71,68.35)" d="M3,0A3,3 0 1,1 0,-3A3,3 0 0,1 3,0Z" style="opacity: 1; stroke-width: 0px; fill: rgb(0, 158, 115); fill-opacity: 1;"/><path class="point" transform="translate(157.71,68.26)" d="M3,0A3,3 0 1,1 0,-3A3,3 0 0,1 3,0Z" style="opacity: 1; stroke-width: 0px; fill: rgb(0, 158, 115); fill-opacity: 1;"/><path class="point" transform="translate(157.71,67.92)" d="M3,0A3,3 0 1,1 0,-3A3,3 0 0,1 3,0Z" style="opacity: 1; stroke-width: 0px; fill: rgb(0, 158, 115); fill-opacity: 1;"/><path class="point" transform="translate(157.71,66.03)" d="M3,0A3,3 0 1,1 0,-3A3,3 0 0,1 3,0Z" style="opacity: 1; stroke-width: 0px; fill: rgb(0, 158, 115); fill-opacity: 1;"/><path class="point" transform="translate(157.71,60.59)" d="M3,0A3,3 0 1,1 0,-3A3,3 0 0,1 3,0Z" style="opacity: 1; stroke-width: 0px; fill: rgb(0, 158, 115); fill-opacity: 1;"/><path class="point" transform="translate(157.71,48.03)" d="M3,0A3,3 0 1,1 0,-3A3,3 0 0,1 3,0Z" style="opacity: 1; stroke-width: 0px; fill: rgb(0, 158, 115); fill-opacity: 1;"/></g></g></g></g><g class="overplot"/><path class="xlines-above crisp" d="M323.8,400.5H560" style="fill: none; stroke-width: 1px; stroke: rgb(0, 0, 0); stroke-opacity: 1;"/><path class="ylines-above crisp" d="M324.3,60V400" style="fill: none; stroke-width: 1px; stroke: rgb(0, 0, 0); stroke-opacity: 1;"/><g class="overlines-above"/><g class="xaxislayer-above"><g class="x2tick"><text text-anchor="middle" x="0" y="419" transform="translate(442.4,0)" style="font-family: 'Open Sans', verdana, arial, sans-serif; font-size: 15px; fill: rgb(0, 0, 0); fill-opacity: 1; white-space: pre; opacity: 1;"> </text></g></g><g class="yaxislayer-above"/><g class="overaxes-above"/></g></g><g class="polarlayer"/><g class="smithlayer"/><g class="ternarylayer"/><g class="geolayer"/><g class="funnelarealayer"/><g class="pielayer"/><g class="iciclelayer"/><g class="treemaplayer"/><g class="sunburstlayer"/><g class="glimages"/><defs id="topdefs-b47dcf"><g class="clips"/><clipPath id="legendb47dcf"><rect width="156" height="71" x="0" y="0"/></clipPath></defs><g class="layer-above"><g class="imagelayer"/><g class="shapelayer"><path data-index="0" fill-rule="evenodd" d="M128.84,306.49L188.43,306.49" clip-path="url(#clipb47dcfxy)" style="opacity: 1; stroke: rgb(0, 0, 0); stroke-opacity: 1; fill: rgb(0, 0, 0); fill-opacity: 0; stroke-dasharray: 9px, 9px; stroke-width: 2px;"/><path data-index="1" fill-rule="evenodd" d="M128.84,170.56L188.43,170.56" clip-path="url(#clipb47dcfxy)" style="opacity: 1; stroke: rgb(0, 0, 0); stroke-opacity: 1; fill: rgb(0, 0, 0); fill-opacity: 0; stroke-dasharray: 9px, 9px; stroke-width: 2px;"/><path data-index="2" fill-rule="evenodd" d="M206.76999999999998,313.28999999999996L266.36,313.28999999999996" clip-path="url(#clipb47dcfxy)" style="opacity: 1; stroke: rgb(0, 0, 0); stroke-opacity: 1; fill: rgb(0, 0, 0); fill-opacity: 0; stroke-dasharray: 9px, 9px; stroke-width: 2px;"/><path data-index="3" fill-rule="evenodd" d="M206.76999999999998,184.47L266.36,184.47" clip-path="url(#clipb47dcfxy)" style="opacity: 1; stroke: rgb(0, 0, 0); stroke-opacity: 1; fill: rgb(0, 0, 0); fill-opacity: 0; stroke-dasharray: 9px, 9px; stroke-width: 2px;"/><path data-index="4" fill-rule="evenodd" d="M373.64,301.3L433.23,301.3" clip-path="url(#clipb47dcfx2y2)" style="opacity: 1; stroke: rgb(0, 0, 0); stroke-opacity: 1; fill: rgb(0, 0, 0); fill-opacity: 0; stroke-dasharray: 9px, 9px; stroke-width: 2px;"/><path data-index="5" fill-rule="evenodd" d="M373.64,185.5L433.23,185.5" clip-path="url(#clipb47dcfx2y2)" style="opacity: 1; stroke: rgb(0, 0, 0); stroke-opacity: 1; fill: rgb(0, 0, 0); fill-opacity: 0; stroke-dasharray: 9px, 9px; stroke-width: 2px;"/><path data-index="6" fill-rule="evenodd" d="M451.57,302.21000000000004L511.16,302.21000000000004" clip-path="url(#clipb47dcfx2y2)" style="opacity: 1; stroke: rgb(0, 0, 0); stroke-opacity: 1; fill: rgb(0, 0, 0); fill-opacity: 0; stroke-dasharray: 9px, 9px; stroke-width: 2px;"/><path data-index="7" fill-rule="evenodd" d="M451.57,181.23000000000002L511.16,181.23000000000002" clip-path="url(#clipb47dcfx2y2)" style="opacity: 1; stroke: rgb(0, 0, 0); stroke-opacity: 1; fill: rgb(0, 0, 0); fill-opacity: 0; stroke-dasharray: 9px, 9px; stroke-width: 2px;"/><path data-index="8" fill-rule="evenodd" d="M327.8,250.76L557,250.76" clip-path="url(#clipb47dcfx2y2)" style="opacity: 1; stroke: rgb(128, 128, 128); stroke-opacity: 1; fill: rgb(0, 0, 0); fill-opacity: 0; stroke-dasharray: 9px, 9px; stroke-width: 1px;"/><path data-index="9" fill-rule="evenodd" d="M83,250.76L312.2,250.76" clip-path="url(#clipb47dcfxy)" style="opacity: 1; stroke: rgb(128, 128, 128); stroke-opacity: 1; fill: rgb(0, 0, 0); fill-opacity: 0; stroke-dasharray: 9px, 9px; stroke-width: 1px;"/></g></g><g class="infolayer"><g class="legend" pointer-events="all" transform="translate(240.8,60)"><rect class="bg" shape-rendering="crispEdges" width="156" height="71" x="0" y="0" style="stroke: rgb(68, 68, 68); stroke-opacity: 1; fill: rgb(255, 255, 255); fill-opacity: 1; stroke-width: 0px;"/><g class="scrollbox" transform="" clip-path="url(#legendb47dcf)"><text class="legendtitletext" text-anchor="start" x="2" y="20.8" style="font-family: 'Open Sans', verdana, arial, sans-serif; font-size: 16px; fill: rgb(0, 0, 0); fill-opacity: 1; white-space: pre;">Genetic_Perturbation</text><g class="groups" transform=""><g class="traces" transform="translate(0,35.75)" style="opacity: 1;"><text class="legendtext" text-anchor="start" x="40" y="5.07" style="font-family: 'Open Sans', verdana, arial, sans-serif; font-size: 13px; fill: rgb(0, 0, 0); fill-opacity: 1; white-space: pre;">CRISPR</text><g class="layers" style="opacity: 1;"><g class="legendfill"/><g class="legendlines"/><g class="legendsymbols"><g class="legendpoints"><path class="legendbox" d="M6,6H-6V-6H6Z" transform="translate(20,0)" style="stroke-width: 2px; fill: rgb(213, 94, 0); fill-opacity: 0.5; stroke: rgb(213, 94, 0); stroke-opacity: 1;"/></g></g></g><rect class="legendtoggle" x="0" y="-9.950000000000001" width="89.125" height="19.900000000000002" style="fill: rgb(0, 0, 0); fill-opacity: 0;"/></g></g><g class="groups" transform=""><g class="traces" transform="translate(0,55.650000000000006)" style="opacity: 1;"><text class="legendtext" text-anchor="start" x="40" y="5.07" style="font-family: 'Open Sans', verdana, arial, sans-serif; font-size: 13px; fill: rgb(0, 0, 0); fill-opacity: 1; white-space: pre;">ORF</text><g class="layers" style="opacity: 1;"><g class="legendfill"/><g class="legendlines"/><g class="legendsymbols"><g class="legendpoints"><path class="legendbox" d="M6,6H-6V-6H6Z" transform="translate(20,0)" style="stroke-width: 2px; fill: rgb(0, 158, 115); fill-opacity: 0.5; stroke: rgb(0, 158, 115); stroke-opacity: 1;"/></g></g></g><rect class="legendtoggle" x="0" y="-9.950000000000001" width="89.125" height="19.900000000000002" style="fill: rgb(0, 0, 0); fill-opacity: 0;"/></g></g></g><rect class="scrollbar" rx="20" ry="3" width="0" height="0" x="0" y="0" style="fill: rgb(128, 139, 164); fill-opacity: 1;"/></g><g class="g-gtitle"><text class="gtitle" x="32" y="30" text-anchor="start" dy="0em" style="font-family: 'Open Sans', verdana, arial, sans-serif; font-size: 21px; fill: rgb(0, 0, 0); opacity: 1; font-weight: normal; white-space: pre;">Compound-genetic perturbation similarity</text></g><g class="g-xtitle"/><g class="g-x2title"/><g class="g-ytitle"><text class="ytitle" transform="rotate(-90,23.134375,230)" x="23.134375" y="230" text-anchor="middle" style="font-family: 'Open Sans', verdana, arial, sans-serif; font-size: 18px; fill: rgb(0, 0, 0); opacity: 1; font-weight: normal; white-space: pre;">Cosine similarity</text></g><g class="g-y2title"/><g class="annotation" data-index="0" style="opacity: 1;"><g class="annotation-text-g" transform="rotate(0,197.6,49.5)"><g class="cursor-pointer" transform="translate(161,39)"><rect class="bg" x="0.5" y="0.5" width="73" height="20" style="stroke-width: 1px; stroke: rgb(0, 0, 0); stroke-opacity: 0; fill: rgb(0, 0, 0); fill-opacity: 0;"/><text class="annotation-text" text-anchor="middle" x="36.828125" y="16" style="font-family: 'Open Sans', verdana, arial, sans-serif; font-size: 15px; fill: rgb(0, 0, 0); fill-opacity: 1; white-space: pre;">Cell=A549</text></g></g></g><g class="annotation" data-index="1" style="opacity: 1;"><g class="annotation-text-g" transform="rotate(0,442.4,49.5)"><g class="cursor-pointer" transform="translate(403,39)"><rect class="bg" x="0.5" y="0.5" width="78" height="20" style="stroke-width: 1px; stroke: rgb(0, 0, 0); stroke-opacity: 0; fill: rgb(0, 0, 0); fill-opacity: 0;"/><text class="annotation-text" text-anchor="middle" x="39.734375" y="16" style="font-family: 'Open Sans', verdana, arial, sans-serif; font-size: 15px; fill: rgb(0, 0, 0); fill-opacity: 1; white-space: pre;">Cell=U2OS</text></g></g></g><g class="annotation" data-index="2" style="opacity: 1;"><g class="annotation-text-g" transform="rotate(0,188.43,320.45)"><g class="cursor-pointer" transform="translate(164,310)"><rect class="bg" x="0.5" y="0.5" width="48" height="20" style="stroke-width: 1px; stroke: rgb(0, 0, 0); stroke-opacity: 0; fill: rgb(0, 0, 0); fill-opacity: 0;"/><text class="annotation-text" text-anchor="middle" x="24.6875" y="16" style="font-family: 'Open Sans', verdana, arial, sans-serif; font-size: 16px; fill: rgb(0, 0, 0); fill-opacity: 1; white-space: pre;">4.24%</text></g></g></g><g class="annotation" data-index="3" style="opacity: 1;"><g class="annotation-text-g" transform="rotate(0,188.43,156.6)"><g class="cursor-pointer" transform="translate(164,146)"><rect class="bg" x="0.5" y="0.5" width="48" height="20" style="stroke-width: 1px; stroke: rgb(0, 0, 0); stroke-opacity: 0; fill: rgb(0, 0, 0); fill-opacity: 0;"/><text class="annotation-text" text-anchor="middle" x="24.6875" y="16" style="font-family: 'Open Sans', verdana, arial, sans-serif; font-size: 16px; fill: rgb(0, 0, 0); fill-opacity: 1; white-space: pre;">8.26%</text></g></g></g><g class="annotation" data-index="4" style="opacity: 1;"><g class="annotation-text-g" transform="rotate(0,266.36,327.25)"><g class="cursor-pointer" transform="translate(242,317)"><rect class="bg" x="0.5" y="0.5" width="48" height="20" style="stroke-width: 1px; stroke: rgb(0, 0, 0); stroke-opacity: 0; fill: rgb(0, 0, 0); fill-opacity: 0;"/><text class="annotation-text" text-anchor="middle" x="24.6875" y="16" style="font-family: 'Open Sans', verdana, arial, sans-serif; font-size: 16px; fill: rgb(0, 0, 0); fill-opacity: 1; white-space: pre;">3.81%</text></g></g></g><g class="annotation" data-index="5" style="opacity: 1;"><g class="annotation-text-g" transform="rotate(0,266.36,170.51)"><g class="cursor-pointer" transform="translate(242,160)"><rect class="bg" x="0.5" y="0.5" width="48" height="20" style="stroke-width: 1px; stroke: rgb(0, 0, 0); stroke-opacity: 0; fill: rgb(0, 0, 0); fill-opacity: 0;"/><text class="annotation-text" text-anchor="middle" x="24.6875" y="16" style="font-family: 'Open Sans', verdana, arial, sans-serif; font-size: 16px; fill: rgb(0, 0, 0); fill-opacity: 1; white-space: pre;">7.99%</text></g></g></g><g class="annotation" data-index="6" style="opacity: 1;"><g class="annotation-text-g" transform="rotate(0,433.23,315.25)"><g class="cursor-pointer" transform="translate(409,305)"><rect class="bg" x="0.5" y="0.5" width="48" height="20" style="stroke-width: 1px; stroke: rgb(0, 0, 0); stroke-opacity: 0; fill: rgb(0, 0, 0); fill-opacity: 0;"/><text class="annotation-text" text-anchor="middle" x="24.6875" y="16" style="font-family: 'Open Sans', verdana, arial, sans-serif; font-size: 16px; fill: rgb(0, 0, 0); fill-opacity: 1; white-space: pre;">3.70%</text></g></g></g><g class="annotation" data-index="7" style="opacity: 1;"><g class="annotation-text-g" transform="rotate(0,433.23,171.55)"><g class="cursor-pointer" transform="translate(409,161)"><rect class="bg" x="0.5" y="0.5" width="48" height="20" style="stroke-width: 1px; stroke: rgb(0, 0, 0); stroke-opacity: 0; fill: rgb(0, 0, 0); fill-opacity: 0;"/><text class="annotation-text" text-anchor="middle" x="24.6875" y="16" style="font-family: 'Open Sans', verdana, arial, sans-serif; font-size: 16px; fill: rgb(0, 0, 0); fill-opacity: 1; white-space: pre;">9.76%</text></g></g></g><g class="annotation" data-index="8" style="opacity: 1;"><g class="annotation-text-g" transform="rotate(0,511.16,316.17)"><g class="cursor-pointer" transform="translate(487,306)"><rect class="bg" x="0.5" y="0.5" width="48" height="20" style="stroke-width: 1px; stroke: rgb(0, 0, 0); stroke-opacity: 0; fill: rgb(0, 0, 0); fill-opacity: 0;"/><text class="annotation-text" text-anchor="middle" x="24.6875" y="16" style="font-family: 'Open Sans', verdana, arial, sans-serif; font-size: 16px; fill: rgb(0, 0, 0); fill-opacity: 1; white-space: pre;">3.76%</text></g></g></g><g class="annotation" data-index="9" style="opacity: 1;"><g class="annotation-text-g" transform="rotate(0,511.16,167.26999999999998)"><g class="cursor-pointer" transform="translate(487,157)"><rect class="bg" x="0.5" y="0.5" width="48" height="20" style="stroke-width: 1px; stroke: rgb(0, 0, 0); stroke-opacity: 0; fill: rgb(0, 0, 0); fill-opacity: 0;"/><text class="annotation-text" text-anchor="middle" x="24.6875" y="16" style="font-family: 'Open Sans', verdana, arial, sans-serif; font-size: 16px; fill: rgb(0, 0, 0); fill-opacity: 1; white-space: pre;">9.33%</text></g></g></g></g></svg>