<svg class="main-svg" xmlns="http://www.w3.org/2000/svg" xmlns:xlink="http://www.w3.org/1999/xlink" width="1280" height="960" style="" viewBox="0 0 640 480"><rect x="0" y="0" width="640" height="480" style="fill: rgb(0, 0, 0); fill-opacity: 0;"/><defs id="defs-a5f9a9"><g class="clips"><clipPath id="clipa5f9a9xyplot" class="plotclip"><rect width="480" height="340"/></clipPath><clipPath class="axesclip" id="clipa5f9a9x"><rect x="80" y="0" width="480" height="480"/></clipPath><clipPath class="axesclip" id="clipa5f9a9y"><rect x="0" y="60" width="640" height="340"/></clipPath><clipPath class="axesclip" id="clipa5f9a9xy"><rect x="80" y="60" width="480" height="340"/></clipPath></g><g class="gradients"/><g class="patterns"/></defs><g class="bglayer"><rect class="bg" x="80" y="60" width="480" height="340" style="fill: rgb(0, 0, 0); fill-opacity: 0; stroke-width: 0;"/></g><g class="layer-below"><g class="imagelayer"/><g class="shapelayer"/></g><g class="cartesianlayer"><g class="subplot xy"><g class="layer-subplot"><g class="shapelayer"/><g class="imagelayer"/></g><g class="minor-gridlayer"><g class="x"/><g class="y"/></g><g class="gridlayer"><g class="x"/><g class="y"><path class="ygrid crisp" transform="translate(0,326.92)" d="M80,0h480" style="stroke: rgb(255, 255, 255); stroke-opacity: 1; stroke-width: 1px;"/><path class="ygrid crisp" transform="translate(0,151.61)" d="M80,0h480" style="stroke: rgb(255, 255, 255); stroke-opacity: 1; stroke-width: 1px;"/><path class="ygrid crisp" transform="translate(0,63.95)" d="M80,0h480" style="stroke: rgb(255, 255, 255); stroke-opacity: 1; stroke-width: 1px;"/></g></g><g class="zerolinelayer"><path class="yzl zl crisp" transform="translate(0,239.27)" d="M80,0h480" style="stroke: rgb(255, 255, 255); stroke-opacity: 1; stroke-width: 2px;"/></g><path class="xlines-below"/><path class="ylines-below"/><g class="overlines-below"/><g class="xaxislayer-below"/><g class="yaxislayer-below"/><g class="overaxes-below"/><g class="plot" transform="translate(80,60)" clip-path="url(#clipa5f9a9xyplot)"><g class="violinlayer mlayer"><g class="trace violins" style="opacity: 1;"><path class="violin" d="M157.11,323Q157.15,320.28 157.17,318.92C157.2,317.56 157.22,316.2 157.26,314.84C157.3,313.48 157.34,312.12 157.39,310.76C157.44,309.4 157.5,308.04 157.57,306.68C157.64,305.32 157.71,303.96 157.79,302.6C157.87,301.24 157.94,299.88 158.03,298.52C158.12,297.16 158.21,295.8 158.31,294.44C158.41,293.08 158.52,291.72 158.65,290.36C158.78,289 158.92,287.64 159.09,286.28C159.26,284.92 159.45,283.56 159.67,282.2C159.89,280.84 160.15,279.48 160.42,278.12C160.7,276.76 161,275.4 161.32,274.04C161.64,272.68 161.99,271.32 162.34,269.96C162.69,268.6 163.06,267.24 163.41,265.88C163.76,264.52 164.12,263.16 164.46,261.8C164.8,260.44 165.13,259.08 165.45,257.72C165.77,256.36 166.08,255 166.39,253.64C166.7,252.28 167,250.92 167.33,249.56C167.66,248.2 167.99,246.83 168.39,245.48C168.79,244.11 169.22,242.75 169.72,241.4C170.23,240.03 170.8,238.66 171.44,237.32C172.1,235.94 172.84,234.58 173.64,233.24C174.46,231.86 175.36,230.5 176.31,229.16C177.28,227.78 178.33,226.43 179.4,225.08C180.49,223.71 181.64,222.35 182.78,221C183.93,219.63 185.13,218.28 186.29,216.92C187.45,215.56 188.62,214.21 189.75,212.84C190.87,211.49 191.97,210.13 193.04,208.76C194.09,207.41 195.12,206.05 196.11,204.68C197.09,203.33 198.04,201.97 198.95,200.6C199.85,199.25 200.73,197.89 201.56,196.52C202.37,195.17 203.16,193.81 203.88,192.44C204.59,191.09 205.26,189.73 205.85,188.36C206.43,187.01 206.95,185.65 207.39,184.28C207.82,182.93 208.18,181.57 208.45,180.2C208.72,178.85 208.92,177.48 209.03,176.12C209.14,174.76 209.18,173.4 209.13,172.04C209.08,170.68 208.95,169.31 208.72,167.96C208.49,166.59 208.16,165.23 207.76,163.88C207.35,162.51 206.85,161.15 206.3,159.8C205.74,158.43 205.09,157.07 204.43,155.72C203.76,154.35 203.03,153 202.3,151.64C201.57,150.28 200.81,148.92 200.05,147.56C199.29,146.2 198.52,144.84 197.75,143.48C196.98,142.12 196.21,140.76 195.42,139.4C194.63,138.04 193.84,136.68 193.03,135.32C192.22,133.96 191.4,132.6 190.57,131.24C189.74,129.88 188.9,128.52 188.07,127.16C187.24,125.8 186.4,124.44 185.57,123.08C184.74,121.72 183.92,120.36 183.09,119C182.26,117.64 181.43,116.28 180.58,114.92C179.73,113.56 178.86,112.2 177.98,110.84C177.09,109.48 176.18,108.12 175.26,106.76C174.34,105.4 173.39,104.04 172.47,102.68C171.55,101.32 170.61,99.97 169.74,98.6C168.88,97.25 168.03,95.89 167.26,94.52C166.51,93.17 165.79,91.81 165.16,90.44C164.54,89.09 163.98,87.73 163.48,86.36C162.99,85.01 162.57,83.65 162.18,82.28C161.8,80.93 161.47,79.56 161.17,78.2C160.87,76.84 160.63,75.48 160.39,74.12C160.16,72.76 159.95,71.4 159.76,70.04C159.57,68.68 159.41,67.32 159.27,65.96C159.13,64.6 159.02,63.24 158.92,61.88C158.82,60.52 158.74,59.16 158.67,57.8C158.6,56.44 158.55,55.08 158.5,53.72C158.45,52.36 158.41,51 158.36,49.64C158.31,48.28 158.26,46.92 158.21,45.56C158.16,44.2 158.1,42.84 158.04,41.48C157.98,40.12 157.91,38.76 157.84,37.4C157.77,36.04 157.71,34.68 157.64,33.32C157.58,31.96 157.51,30.6 157.45,29.24C157.39,27.88 157.34,26.52 157.3,25.16C157.26,23.8 157.22,22.44 157.19,21.08Q157.16,19.72 157.12,17L156.98,17Q156.94,19.72 156.91,21.08C156.88,22.44 156.84,23.8 156.8,25.16C156.76,26.52 156.71,27.88 156.65,29.24C156.59,30.6 156.52,31.96 156.46,33.32C156.39,34.68 156.33,36.04 156.26,37.4C156.19,38.76 156.12,40.12 156.06,41.48C156,42.84 155.94,44.2 155.89,45.56C155.84,46.92 155.79,48.28 155.74,49.64C155.69,51 155.65,52.36 155.6,53.72C155.55,55.08 155.5,56.44 155.43,57.8C155.36,59.16 155.28,60.52 155.18,61.88C155.08,63.24 154.97,64.6 154.83,65.96C154.69,67.32 154.53,68.68 154.34,70.04C154.15,71.4 153.94,72.76 153.71,74.12C153.47,75.48 153.23,76.84 152.93,78.2C152.63,79.56 152.3,80.93 151.92,82.28C151.53,83.65 151.11,85.01 150.62,86.36C150.12,87.73 149.56,89.09 148.94,90.44C148.31,91.81 147.59,93.17 146.84,94.52C146.07,95.89 145.22,97.25 144.36,98.6C143.49,99.97 142.55,101.32 141.63,102.68C140.71,104.04 139.76,105.4 138.84,106.76C137.92,108.12 137.01,109.48 136.12,110.84C135.24,112.2 134.37,113.56 133.52,114.92C132.67,116.28 131.84,117.64 131.01,119C130.18,120.36 129.36,121.72 128.53,123.08C127.7,124.44 126.86,125.8 126.03,127.16C125.2,128.52 124.36,129.88 123.53,131.24C122.7,132.6 121.88,133.96 121.07,135.32C120.26,136.68 119.47,138.04 118.68,139.4C117.89,140.76 117.12,142.12 116.35,143.48C115.58,144.84 114.81,146.2 114.05,147.56C113.29,148.92 112.53,150.28 111.8,151.64C111.07,153 110.34,154.35 109.67,155.72C109.01,157.07 108.36,158.43 107.8,159.8C107.25,161.15 106.75,162.51 106.34,163.88C105.94,165.23 105.61,166.59 105.38,167.96C105.15,169.31 105.02,170.68 104.97,172.04C104.92,173.4 104.96,174.76 105.07,176.12C105.18,177.48 105.38,178.85 105.65,180.2C105.92,181.57 106.28,182.93 106.71,184.28C107.15,185.65 107.67,187.01 108.25,188.36C108.84,189.73 109.51,191.09 110.22,192.44C110.94,193.81 111.73,195.17 112.54,196.52C113.37,197.89 114.25,199.25 115.15,200.6C116.06,201.97 117.01,203.33 117.99,204.68C118.98,206.05 120.01,207.41 121.06,208.76C122.13,210.13 123.23,211.49 124.35,212.84C125.48,214.21 126.65,215.56 127.81,216.92C128.97,218.28 130.17,219.63 131.32,221C132.46,222.35 133.61,223.71 134.7,225.08C135.77,226.43 136.82,227.78 137.79,229.16C138.74,230.5 139.64,231.86 140.46,233.24C141.26,234.58 142,235.94 142.66,237.32C143.3,238.66 143.87,240.03 144.38,241.4C144.88,242.75 145.31,244.11 145.71,245.48C146.11,246.83 146.44,248.2 146.77,249.56C147.1,250.92 147.4,252.28 147.71,253.64C148.02,255 148.33,256.36 148.65,257.72C148.97,259.08 149.3,260.44 149.64,261.8C149.98,263.16 150.34,264.52 150.69,265.88C151.04,267.24 151.41,268.6 151.76,269.96C152.11,271.32 152.46,272.68 152.78,274.04C153.1,275.4 153.4,276.76 153.68,278.12C153.95,279.48 154.21,280.84 154.43,282.2C154.65,283.56 154.84,284.92 155.01,286.28C155.18,287.64 155.32,289 155.45,290.36C155.58,291.72 155.69,293.08 155.79,294.44C155.89,295.8 155.98,297.16 156.07,298.52C156.16,299.88 156.23,301.24 156.31,302.6C156.39,303.96 156.46,305.32 156.53,306.68C156.6,308.04 156.66,309.4 156.71,310.76C156.76,312.12 156.8,313.48 156.84,314.84C156.88,316.2 156.9,317.56 156.93,318.92Q156.95,320.28 156.99,323Z" style="vector-effect: non-scaling-stroke; stroke-width: 2px; stroke: rgb(204, 121, 167); stroke-opacity: 1; fill: rgb(204, 121, 167); fill-opacity: 0.5;"/><path class="box" d="M142.53,170.9H171.57M142.53,200.13H171.57V142.88H142.53ZM157.05,200.13V276.43M157.05,142.88V65.4" style="vector-effect: non-scaling-stroke; stroke-width: 2px; stroke: rgb(204, 121, 167); stroke-opacity: 1; fill: rgb(204, 121, 167); fill-opacity: 0.5;"/><g class="points"><path class="point" transform="translate(157.05,298.5)" d="M3,0A3,3 0 1,1 0,-3A3,3 0 0,1 3,0Z" style="opacity: 1; stroke-width: 0px; fill: rgb(204, 121, 167); fill-opacity: 1;"/><path class="point" transform="translate(157.05,292.39)" d="M3,0A3,3 0 1,1 0,-3A3,3 0 0,1 3,0Z" style="opacity: 1; stroke-width: 0px; fill: rgb(204, 121, 167); fill-opacity: 1;"/><path class="point" transform="translate(157.05,289.27)" d="M3,0A3,3 0 1,1 0,-3A3,3 0 0,1 3,0Z" style="opacity: 1; stroke-width: 0px; fill: rgb(204, 121, 167); fill-opacity: 1;"/><path class="point" transform="translate(157.05,54.67)" d="M3,0A3,3 0 1,1 0,-3A3,3 0 0,1 3,0Z" style="opacity: 1; stroke-width: 0px; fill: rgb(204, 121, 167); fill-opacity: 1;"/><path class="point" transform="translate(157.05,52.56)" d="M3,0A3,3 0 1,1 0,-3A3,3 0 0,1 3,0Z" style="opacity: 1; stroke-width: 0px; fill: rgb(204, 121, 167); fill-opacity: 1;"/><path class="point" transform="translate(157.05,43.54)" d="M3,0A3,3 0 1,1 0,-3A3,3 0 0,1 3,0Z" style="opacity: 1; stroke-width: 0px; fill: rgb(204, 121, 167); fill-opacity: 1;"/><path class="point" transform="translate(157.05,41.5)" d="M3,0A3,3 0 1,1 0,-3A3,3 0 0,1 3,0Z" style="opacity: 1; stroke-width: 0px; fill: rgb(204, 121, 167); fill-opacity: 1;"/></g></g><g class="trace violins" style="opacity: 1;"><path class="violin" d="M323.05,288.51Q323.11,286.06 323.15,284.83C323.2,283.6 323.25,282.38 323.32,281.15C323.39,279.92 323.46,278.7 323.56,277.47C323.66,276.25 323.78,275.02 323.9,273.8C324.02,272.57 324.16,271.35 324.3,270.12C324.45,268.89 324.61,267.67 324.77,266.44C324.93,265.21 325.09,263.99 325.27,262.76C325.44,261.54 325.63,260.31 325.82,259.09C326.01,257.86 326.21,256.64 326.43,255.41C326.65,254.18 326.88,252.95 327.14,251.73C327.4,250.5 327.68,249.27 327.99,248.05C328.3,246.82 328.64,245.6 329.01,244.38C329.38,243.15 329.78,241.92 330.22,240.7C330.66,239.47 331.13,238.24 331.64,237.02C332.15,235.79 332.7,234.56 333.29,233.34C333.89,232.11 334.52,230.88 335.2,229.67C335.89,228.43 336.64,227.21 337.42,225.99C338.22,224.75 339.06,223.53 339.94,222.31C340.83,221.07 341.77,219.85 342.73,218.63C343.71,217.4 344.73,216.18 345.76,214.96C346.81,213.73 347.88,212.5 348.98,211.28C350.09,210.05 351.23,208.82 352.38,207.6C353.54,206.37 354.73,205.14 355.92,203.92C357.12,202.69 358.35,201.47 359.56,200.24C360.77,199.02 362.01,197.8 363.2,196.57C364.38,195.35 365.56,194.13 366.69,192.89C367.79,191.68 368.87,190.45 369.89,189.21C370.89,188 371.84,186.77 372.74,185.53C373.62,184.32 374.44,183.1 375.22,181.86C375.98,180.65 376.7,179.42 377.36,178.18C378,176.97 378.62,175.74 379.13,174.5C379.63,173.29 380.09,172.06 380.41,170.82C380.72,169.61 380.96,168.38 381.02,167.15C381.08,165.93 381,164.68 380.77,163.47C380.54,162.23 380.11,161 379.62,159.79C379.11,158.54 378.43,157.32 377.73,156.11C377.01,154.87 376.18,153.66 375.37,152.44C374.56,151.21 373.69,149.99 372.87,148.76C372.06,147.54 371.25,146.31 370.48,145.08C369.72,143.86 368.99,142.63 368.28,141.4C367.57,140.18 366.91,138.95 366.22,137.73C365.53,136.5 364.87,135.27 364.16,134.05C363.45,132.82 362.72,131.59 361.96,130.37C361.19,129.14 360.39,127.91 359.56,126.69C358.71,125.45 357.82,124.23 356.91,123.01C355.99,121.78 355.02,120.56 354.05,119.34C353.07,118.11 352.05,116.89 351.05,115.66C350.05,114.43 349.02,113.21 348.04,111.98C347.06,110.76 346.09,109.54 345.17,108.3C344.27,107.09 343.39,105.87 342.56,104.63C341.75,103.42 340.98,102.19 340.26,100.95C339.55,99.73 338.89,98.5 338.25,97.27C337.62,96.05 337.03,94.82 336.45,93.59C335.87,92.37 335.32,91.15 334.78,89.92C334.24,88.7 333.71,87.47 333.19,86.24C332.67,85.02 332.16,83.79 331.67,82.56C331.18,81.34 330.71,80.11 330.27,78.88C329.83,77.66 329.41,76.44 329.03,75.21C328.66,73.99 328.32,72.76 328.02,71.53C327.72,70.31 327.47,69.08 327.25,67.85C327.03,66.63 326.86,65.4 326.69,64.17C326.52,62.95 326.39,61.72 326.24,60.5C326.09,59.27 325.96,58.05 325.81,56.82C325.66,55.59 325.51,54.37 325.35,53.14C325.19,51.91 325.02,50.69 324.85,49.46C324.68,48.23 324.51,47.01 324.35,45.78C324.19,44.56 324.03,43.34 323.89,42.11C323.75,40.89 323.63,39.66 323.53,38.43C323.43,37.2 323.35,35.98 323.28,34.75Q323.21,33.52 323.12,31.07L322.78,31.07Q322.69,33.52 322.62,34.75C322.55,35.98 322.47,37.2 322.37,38.43C322.27,39.66 322.15,40.89 322.01,42.11C321.87,43.34 321.71,44.56 321.55,45.78C321.39,47.01 321.22,48.23 321.05,49.46C320.88,50.69 320.71,51.91 320.55,53.14C320.39,54.37 320.24,55.59 320.09,56.82C319.94,58.05 319.81,59.27 319.66,60.5C319.51,61.72 319.38,62.95 319.21,64.17C319.04,65.4 318.87,66.63 318.65,67.85C318.43,69.08 318.18,70.31 317.88,71.53C317.58,72.76 317.24,73.99 316.87,75.21C316.49,76.44 316.07,77.66 315.63,78.88C315.19,80.11 314.72,81.34 314.23,82.56C313.74,83.79 313.23,85.02 312.71,86.24C312.19,87.47 311.66,88.7 311.12,89.92C310.58,91.15 310.03,92.37 309.45,93.59C308.87,94.82 308.28,96.05 307.65,97.27C307.01,98.5 306.35,99.73 305.64,100.95C304.92,102.19 304.15,103.42 303.34,104.63C302.51,105.87 301.63,107.09 300.73,108.3C299.81,109.54 298.84,110.76 297.86,111.98C296.88,113.21 295.85,114.43 294.85,115.66C293.85,116.89 292.83,118.11 291.85,119.34C290.88,120.56 289.91,121.78 288.99,123.01C288.08,124.23 287.19,125.45 286.34,126.69C285.51,127.91 284.71,129.14 283.94,130.37C283.18,131.59 282.45,132.82 281.74,134.05C281.03,135.27 280.37,136.5 279.68,137.73C278.99,138.95 278.33,140.18 277.62,141.4C276.91,142.63 276.18,143.86 275.42,145.08C274.65,146.31 273.84,147.54 273.03,148.76C272.21,149.99 271.34,151.21 270.53,152.44C269.72,153.66 268.89,154.87 268.17,156.11C267.47,157.32 266.79,158.54 266.28,159.79C265.79,161 265.36,162.23 265.13,163.47C264.9,164.68 264.83,165.93 264.89,167.15C264.95,168.38 265.18,169.61 265.49,170.82C265.8,172.06 266.27,173.29 266.77,174.5C267.28,175.74 267.9,176.97 268.54,178.18C269.2,179.42 269.92,180.65 270.68,181.86C271.46,183.1 272.28,184.32 273.16,185.53C274.06,186.77 275.01,188 276.01,189.21C277.03,190.45 278.11,191.68 279.21,192.89C280.34,194.13 281.52,195.35 282.7,196.57C283.89,197.8 285.13,199.02 286.34,200.24C287.55,201.47 288.78,202.69 289.98,203.92C291.17,205.14 292.36,206.37 293.52,207.6C294.67,208.82 295.81,210.05 296.92,211.28C298.02,212.5 299.09,213.73 300.14,214.96C301.17,216.18 302.19,217.4 303.17,218.63C304.13,219.85 305.07,221.07 305.96,222.31C306.84,223.53 307.68,224.75 308.48,225.99C309.26,227.21 310.01,228.43 310.7,229.67C311.38,230.88 312.01,232.11 312.61,233.34C313.2,234.56 313.75,235.79 314.26,237.02C314.77,238.24 315.24,239.47 315.68,240.7C316.12,241.92 316.52,243.15 316.89,244.38C317.26,245.6 317.6,246.82 317.91,248.05C318.22,249.27 318.5,250.5 318.76,251.73C319.02,252.95 319.25,254.18 319.47,255.41C319.69,256.64 319.89,257.86 320.08,259.09C320.27,260.31 320.46,261.54 320.63,262.76C320.81,263.99 320.97,265.21 321.13,266.44C321.29,267.67 321.45,268.89 321.6,270.12C321.74,271.35 321.88,272.57 322,273.8C322.12,275.02 322.24,276.25 322.34,277.47C322.44,278.7 322.51,279.92 322.58,281.15C322.65,282.38 322.7,283.6 322.75,284.83Q322.79,286.06 322.85,288.51Z" style="vector-effect: non-scaling-stroke; stroke-width: 2px; stroke: rgb(86, 180, 233); stroke-opacity: 1; fill: rgb(86, 180, 233); fill-opacity: 0.5;"/><path class="box" d="M308.43,163.12H337.47M308.43,187.31H337.47V135.26H308.43ZM322.95,187.31V263.58M322.95,135.26V59.19" style="vector-effect: non-scaling-stroke; stroke-width: 2px; stroke: rgb(86, 180, 233); stroke-opacity: 1; fill: rgb(86, 180, 233); fill-opacity: 0.5;"/><g class="points"><path class="point" transform="translate(322.95,266.14)" d="M3,0A3,3 0 1,1 0,-3A3,3 0 0,1 3,0Z" style="opacity: 1; stroke-width: 0px; fill: rgb(86, 180, 233); fill-opacity: 1;"/><path class="point" transform="translate(322.95,54.73)" d="M3,0A3,3 0 1,1 0,-3A3,3 0 0,1 3,0Z" style="opacity: 1; stroke-width: 0px; fill: rgb(86, 180, 233); fill-opacity: 1;"/><path class="point" transform="translate(322.95,53.78)" d="M3,0A3,3 0 1,1 0,-3A3,3 0 0,1 3,0Z" style="opacity: 1; stroke-width: 0px; fill: rgb(86, 180, 233); fill-opacity: 1;"/><path class="point" transform="translate(322.95,53.45)" d="M3,0A3,3 0 1,1 0,-3A3,3 0 0,1 3,0Z" style="opacity: 1; stroke-width: 0px; fill: rgb(86, 180, 233); fill-opacity: 1;"/></g></g></g></g><g class="overplot"/><path class="xlines-above crisp" d="M79,400.5H560" style="fill: none; stroke-width: 1px; stroke: rgb(0, 0, 0); stroke-opacity: 1;"/><path class="ylines-above crisp" d="M79.5,60V400" style="fill: none; stroke-width: 1px; stroke: rgb(0, 0, 0); stroke-opacity: 1;"/><g class="overlines-above"/><g class="xaxislayer-above"><g class="xtick"><text text-anchor="middle" x="0" y="416.6" transform="translate(320,0)" style="font-family: 'Open Sans', verdana, arial, sans-serif; font-size: 13px; fill: rgb(0, 0, 0); fill-opacity: 1; white-space: pre; opacity: 1;"> </text></g></g><g class="yaxislayer-above"><g class="ytick"><text text-anchor="end" x="76.4" y="4.55" transform="translate(0,326.92)" style="font-family: 'Open Sans', verdana, arial, sans-serif; font-size: 13px; fill: rgb(0, 0, 0); fill-opacity: 1; white-space: pre; opacity: 1;">−0.5</text></g><g class="ytick"><text text-anchor="end" x="76.4" y="4.55" style="font-family: 'Open Sans', verdana, arial, sans-serif; font-size: 13px; fill: rgb(0, 0, 0); fill-opacity: 1; white-space: pre; opacity: 1;" transform="translate(0,239.27)">0</text></g><g class="ytick"><text text-anchor="end" x="76.4" y="4.55" style="font-family: 'Open Sans', verdana, arial, sans-serif; font-size: 13px; fill: rgb(0, 0, 0); fill-opacity: 1; white-space: pre; opacity: 1;" transform="translate(0,151.61)">0.5</text></g><g class="ytick"><text text-anchor="end" x="76.4" y="4.55" style="font-family: 'Open Sans', verdana, arial, sans-serif; font-size: 13px; fill: rgb(0, 0, 0); fill-opacity: 1; white-space: pre; opacity: 1;" transform="translate(0,63.95)">1</text></g></g><g class="overaxes-above"/></g></g><g class="polarlayer"/><g class="smithlayer"/><g class="ternarylayer"/><g class="geolayer"/><g class="funnelarealayer"/><g class="pielayer"/><g class="iciclelayer"/><g class="treemaplayer"/><g class="sunburstlayer"/><g class="glimages"/><defs id="topdefs-a5f9a9"><g class="clips"/><clipPath id="legenda5f9a9"><rect width="86" height="79" x="0" y="0"/></clipPath></defs><g class="layer-above"><g class="imagelayer"/><g class="shapelayer"><path data-index="0" fill-rule="evenodd" d="M338.96,290.53L462.2,290.53" clip-path="url(#clipa5f9a9xy)" style="opacity: 1; stroke: rgb(0, 0, 0); stroke-opacity: 1; fill: rgb(0, 0, 0); fill-opacity: 0; stroke-dasharray: 9px, 9px; stroke-width: 2px;"/><path data-index="1" fill-rule="evenodd" d="M338.96,171.57L462.2,171.57" clip-path="url(#clipa5f9a9xy)" style="opacity: 1; stroke: rgb(0, 0, 0); stroke-opacity: 1; fill: rgb(0, 0, 0); fill-opacity: 0; stroke-dasharray: 9px, 9px; stroke-width: 2px;"/><path data-index="2" fill-rule="evenodd" d="M177.8,299.33000000000004L301.03999999999996,299.33000000000004" clip-path="url(#clipa5f9a9xy)" style="opacity: 1; stroke: rgb(0, 0, 0); stroke-opacity: 1; fill: rgb(0, 0, 0); fill-opacity: 0; stroke-dasharray: 9px, 9px; stroke-width: 2px;"/><path data-index="3" fill-rule="evenodd" d="M177.8,164.05L301.03999999999996,164.05" clip-path="url(#clipa5f9a9xy)" style="opacity: 1; stroke: rgb(0, 0, 0); stroke-opacity: 1; fill: rgb(0, 0, 0); fill-opacity: 0; stroke-dasharray: 9px, 9px; stroke-width: 2px;"/><path data-index="4" fill-rule="evenodd" d="M83,239.27L557,239.27" clip-path="url(#clipa5f9a9xy)" style="opacity: 1; stroke: rgb(128, 128, 128); stroke-opacity: 1; fill: rgb(0, 0, 0); fill-opacity: 0; stroke-dasharray: 9px, 9px; stroke-width: 1px;"/></g></g><g class="infolayer"><g class="legend" pointer-events="all" transform="translate(464,60)"><rect class="bg" shape-rendering="crispEdges" width="86" height="79" x="0" y="0" style="stroke: rgb(68, 68, 68); stroke-opacity: 1; fill: rgb(255, 255, 255); fill-opacity: 1; stroke-width: 0px;"/><g class="scrollbox" transform="" clip-path="url(#legenda5f9a9)"><text class="legendtitletext" text-anchor="start" x="2" y="23.400000000000002" style="font-family: 'Open Sans', verdana, arial, sans-serif; font-size: 18px; fill: rgb(0, 0, 0); fill-opacity: 1; white-space: pre;">Cell</text><g class="groups" transform=""><g class="traces" transform="translate(0,39.650000000000006)" style="opacity: 1;"><text class="legendtext" text-anchor="start" x="40" y="5.85" style="font-family: 'Open Sans', verdana, arial, sans-serif; font-size: 15px; fill: rgb(0, 0, 0); fill-opacity: 1; white-space: pre;">A549</text><g class="layers" style="opacity: 1;"><g class="legendfill"/><g class="legendlines"/><g class="legendsymbols"><g class="legendpoints"><path class="legendbox" d="M6,6H-6V-6H6Z" transform="translate(20,0)" style="stroke-width: 2px; fill: rgb(204, 121, 167); fill-opacity: 0.5; stroke: rgb(204, 121, 167); stroke-opacity: 1;"/></g></g></g><rect class="legendtoggle" x="0" y="-11.25" width="80.859375" height="22.5" style="fill: rgb(0, 0, 0); fill-opacity: 0;"/></g></g><g class="groups" transform=""><g class="traces" transform="translate(0,62.150000000000006)" style="opacity: 1;"><text class="legendtext" text-anchor="start" x="40" y="5.85" style="font-family: 'Open Sans', verdana, arial, sans-serif; font-size: 15px; fill: rgb(0, 0, 0); fill-opacity: 1; white-space: pre;">U2OS</text><g class="layers" style="opacity: 1;"><g class="legendfill"/><g class="legendlines"/><g class="legendsymbols"><g class="legendpoints"><path class="legendbox" d="M6,6H-6V-6H6Z" transform="translate(20,0)" style="stroke-width: 2px; fill: rgb(86, 180, 233); fill-opacity: 0.5; stroke: rgb(86, 180, 233); stroke-opacity: 1;"/></g></g></g><rect class="legendtoggle" x="0" y="-11.25" width="80.859375" height="22.5" style="fill: rgb(0, 0, 0); fill-opacity: 0;"/></g></g></g><rect class="scrollbar" rx="20" ry="3" width="0" height="0" x="0" y="0" style="fill: rgb(128, 139, 164); fill-opacity: 1;"/></g><g class="g-gtitle"><text class="gtitle" x="32" y="30" text-anchor="start" dy="0em" style="font-family: 'Open Sans', verdana, arial, sans-serif; font-size: 21px; fill: rgb(0, 0, 0); opacity: 1; font-weight: normal; white-space: pre;">ORF-CRISPR similarity</text></g><g class="g-xtitle"/><g class="g-ytitle"><text class="ytitle" transform="rotate(-90,23.134375,230)" x="23.134375" y="230" text-anchor="middle" style="font-family: 'Open Sans', verdana, arial, sans-serif; font-size: 18px; fill: rgb(0, 0, 0); opacity: 1; font-weight: normal; white-space: pre;">Cosine Similarity</text></g><g class="annotation" data-index="0" style="opacity: 1;"><g class="annotation-text-g" transform="rotate(0,462.2,304.55)"><g class="cursor-pointer" transform="translate(438,294)"><rect class="bg" x="0.5" y="0.5" width="48" height="20" style="stroke-width: 1px; stroke: rgb(0, 0, 0); stroke-opacity: 0; fill: rgb(0, 0, 0); fill-opacity: 0;"/><text class="annotation-text" text-anchor="middle" x="24.6875" y="16" style="font-family: 'Open Sans', verdana, arial, sans-serif; font-size: 16px; fill: rgb(0, 0, 0); fill-opacity: 1; white-space: pre;">3.73%</text></g></g></g><g class="annotation" data-index="1" style="opacity: 1;"><g class="annotation-text-g" transform="rotate(0,462.2,157.54000000000002)"><g class="cursor-pointer" transform="translate(438,147)"><rect class="bg" x="0.5" y="0.5" width="48" height="20" style="stroke-width: 1px; stroke: rgb(0, 0, 0); stroke-opacity: 0; fill: rgb(0, 0, 0); fill-opacity: 0;"/><text class="annotation-text" text-anchor="middle" x="24.6875" y="16" style="font-family: 'Open Sans', verdana, arial, sans-serif; font-size: 16px; fill: rgb(0, 0, 0); fill-opacity: 1; white-space: pre;">9.28%</text></g></g></g><g class="annotation" data-index="2" style="opacity: 1;"><g class="annotation-text-g" transform="rotate(0,301.03999999999996,313.36)"><g class="cursor-pointer" transform="translate(277,303)"><rect class="bg" x="0.5" y="0.5" width="48" height="20" style="stroke-width: 1px; stroke: rgb(0, 0, 0); stroke-opacity: 0; fill: rgb(0, 0, 0); fill-opacity: 0;"/><text class="annotation-text" text-anchor="middle" x="24.6875" y="16" style="font-family: 'Open Sans', verdana, arial, sans-serif; font-size: 16px; fill: rgb(0, 0, 0); fill-opacity: 1; white-space: pre;">3.92%</text></g></g></g><g class="annotation" data-index="3" style="opacity: 1;"><g class="annotation-text-g" transform="rotate(0,301.03999999999996,150.01999999999998)"><g class="cursor-pointer" transform="translate(277,140)"><rect class="bg" x="0.5" y="0.5" width="48" height="20" style="stroke-width: 1px; stroke: rgb(0, 0, 0); stroke-opacity: 0; fill: rgb(0, 0, 0); fill-opacity: 0;"/><text class="annotation-text" text-anchor="middle" x="24.6875" y="16" style="font-family: 'Open Sans', verdana, arial, sans-serif; font-size: 16px; fill: rgb(0, 0, 0); fill-opacity: 1; white-space: pre;">8.21%</text></g></g></g></g></svg>